<svg width="697" height="126" viewBox="0 0 697 126" fill="none" xmlns="http://www.w3.org/2000/svg">
<path d="M470.777 60V44.6387H471.905V49.9453C473.223 49.1289 474.573 48.7207 475.955 48.7207C478.698 48.7207 480.069 50.1208 480.069 52.9209V60H478.941V52.459C478.941 50.64 477.928 49.7305 475.901 49.7305C474.548 49.7305 473.216 50.2067 471.905 51.1592V60H470.777ZM482.433 56.8096C482.433 54.568 483.923 53.4473 486.902 53.4473C487.954 53.4473 489.079 53.5189 490.275 53.6621V52.2764C490.275 50.5505 489.19 49.6875 487.02 49.6875C485.86 49.6875 484.671 49.8665 483.453 50.2246V49.2578C484.671 48.8997 485.86 48.7207 487.02 48.7207C489.942 48.7207 491.403 49.888 491.403 52.2227V60H490.715L490.457 58.8828C489.047 59.6276 487.679 60 486.354 60C483.74 60 482.433 58.9365 482.433 56.8096ZM486.902 54.4141C484.675 54.4141 483.561 55.2018 483.561 56.7773C483.561 58.2812 484.492 59.0332 486.354 59.0332C487.729 59.0332 489.036 58.668 490.275 57.9375V54.6289C489.079 54.4857 487.954 54.4141 486.902 54.4141ZM494.411 60V48.7207H495.217L495.356 50.1602C496.796 49.2005 498.207 48.7207 499.589 48.7207C502.332 48.7207 503.703 49.9059 503.703 52.2764V60H502.575V52.2441C502.575 50.5684 501.562 49.7305 499.535 49.7305C498.181 49.7305 496.849 50.2067 495.539 51.1592V60H494.411ZM514.929 50.375C513.84 49.9883 512.709 49.7949 511.534 49.7949C508.763 49.7949 507.377 51.2165 507.377 54.0596C507.377 57.3467 508.763 58.9902 511.534 58.9902C512.709 58.9902 513.84 58.8506 514.929 58.5713V50.375ZM516.057 59.3232C514.832 59.7744 513.289 60 511.427 60C507.925 60 506.174 58.0449 506.174 54.1348C506.174 50.5254 507.957 48.7207 511.524 48.7207C512.641 48.7207 513.776 48.8997 514.929 49.2578V44.6387H516.057V59.3232ZM519.054 60V48.7207H519.86L519.978 50.1387C521.131 49.1934 522.381 48.7207 523.727 48.7207C525.503 48.7207 526.653 49.2363 527.175 50.2676C528.472 49.2363 529.786 48.7207 531.118 48.7207C533.639 48.7207 534.899 49.9704 534.899 52.4697V60H533.771V52.4697C533.771 50.6436 532.883 49.7305 531.107 49.7305C529.689 49.7305 528.518 50.2174 527.594 51.1914V60H526.466V52.2871C526.466 50.5827 525.55 49.7305 523.716 49.7305C522.384 49.7305 521.206 50.2174 520.182 51.1914V60H519.054ZM537.263 56.8096C537.263 54.568 538.752 53.4473 541.732 53.4473C542.784 53.4473 543.909 53.5189 545.105 53.6621V52.2764C545.105 50.5505 544.02 49.6875 541.85 49.6875C540.69 49.6875 539.501 49.8665 538.283 50.2246V49.2578C539.501 48.8997 540.69 48.7207 541.85 48.7207C544.772 48.7207 546.233 49.888 546.233 52.2227V60H545.545L545.287 58.8828C543.876 59.6276 542.509 60 541.184 60C538.57 60 537.263 58.9365 537.263 56.8096ZM541.732 54.4141C539.504 54.4141 538.391 55.2018 538.391 56.7773C538.391 58.2812 539.322 59.0332 541.184 59.0332C542.559 59.0332 543.866 58.668 545.105 57.9375V54.6289C543.909 54.4857 542.784 54.4141 541.732 54.4141ZM557.459 50.375C556.37 49.9883 555.239 49.7949 554.064 49.7949C551.293 49.7949 549.907 51.2165 549.907 54.0596C549.907 57.3467 551.293 58.9902 554.064 58.9902C555.239 58.9902 556.37 58.8506 557.459 58.5713V50.375ZM558.587 59.3232C557.362 59.7744 555.819 60 553.957 60C550.455 60 548.704 58.0449 548.704 54.1348C548.704 50.5254 550.487 48.7207 554.053 48.7207C555.17 48.7207 556.306 48.8997 557.459 49.2578V44.6387H558.587V59.3232ZM566.128 48.7207C569.215 48.7207 570.758 50.4287 570.758 53.8447C570.758 54.0882 570.751 54.3424 570.736 54.6074H562.175C562.175 57.5579 563.736 59.0332 566.858 59.0332C568.14 59.0332 569.279 58.8542 570.274 58.4961V59.4629C569.279 59.821 568.14 60 566.858 60C562.984 60 561.047 58.0771 561.047 54.2314C561.047 50.5576 562.741 48.7207 566.128 48.7207ZM562.175 53.5977H569.673C569.63 50.9766 568.448 49.666 566.128 49.666C563.621 49.666 562.304 50.9766 562.175 53.5977Z" fill="#1D372E"/>
<path d="M470.777 60H470.277V60.5H470.777V60ZM470.777 44.6387V44.1387H470.277V44.6387H470.777ZM471.905 44.6387H472.405V44.1387H471.905V44.6387ZM471.905 49.9453H471.405V50.8433L472.169 50.3703L471.905 49.9453ZM480.069 60V60.5H480.569V60H480.069ZM478.941 60H478.441V60.5H478.941V60ZM471.905 51.1592L471.611 50.7547L471.405 50.9045V51.1592H471.905ZM471.905 60V60.5H472.405V60H471.905ZM471.277 60V44.6387H470.277V60H471.277ZM470.777 45.1387H471.905V44.1387H470.777V45.1387ZM471.405 44.6387V49.9453H472.405V44.6387H471.405ZM472.169 50.3703C473.417 49.5968 474.677 49.2207 475.955 49.2207V48.2207C474.469 48.2207 473.029 48.661 471.642 49.5203L472.169 50.3703ZM475.955 49.2207C477.247 49.2207 478.124 49.5497 478.684 50.1206C479.245 50.6935 479.569 51.5953 479.569 52.9209H480.569C480.569 51.4463 480.208 50.2481 479.398 49.4209C478.586 48.5918 477.406 48.2207 475.955 48.2207V49.2207ZM479.569 52.9209V60H480.569V52.9209H479.569ZM480.069 59.5H478.941V60.5H480.069V59.5ZM479.441 60V52.459H478.441V60H479.441ZM479.441 52.459C479.441 51.4576 479.16 50.6191 478.515 50.0405C477.881 49.4712 476.979 49.2305 475.901 49.2305V50.2305C476.85 50.2305 477.468 50.4445 477.847 50.7847C478.216 51.1156 478.441 51.6414 478.441 52.459H479.441ZM475.901 49.2305C474.423 49.2305 472.99 49.7527 471.611 50.7547L472.199 51.5636C473.442 50.6607 474.673 50.2305 475.901 50.2305V49.2305ZM471.405 51.1592V60H472.405V51.1592H471.405ZM471.905 59.5H470.777V60.5H471.905V59.5ZM490.275 53.6621L490.215 54.1586L490.775 54.2256V53.6621H490.275ZM483.453 50.2246H482.953V50.8928L483.595 50.7043L483.453 50.2246ZM483.453 49.2578L483.312 48.7781L482.953 48.8837V49.2578H483.453ZM491.403 60V60.5H491.903V60H491.403ZM490.715 60L490.228 60.1124L490.317 60.5H490.715V60ZM490.457 58.8828L490.945 58.7704L490.799 58.1373L490.224 58.4406L490.457 58.8828ZM490.275 57.9375L490.529 58.3682L490.775 58.2231V57.9375H490.275ZM490.275 54.6289H490.775V54.1852L490.334 54.1325L490.275 54.6289ZM482.933 56.8096C482.933 55.8102 483.258 55.1337 483.851 54.6874C484.471 54.2209 485.46 53.9473 486.902 53.9473V52.9473C485.364 52.9473 484.119 53.234 483.25 53.8883C482.353 54.5627 481.933 55.5674 481.933 56.8096H482.933ZM486.902 53.9473C487.932 53.9473 489.036 54.0174 490.215 54.1586L490.334 53.1657C489.121 53.0204 487.977 52.9473 486.902 52.9473V53.9473ZM490.775 53.6621V52.2764H489.775V53.6621H490.775ZM490.775 52.2764C490.775 51.3021 490.463 50.4926 489.772 49.9434C489.104 49.4115 488.158 49.1875 487.02 49.1875V50.1875C488.052 50.1875 488.734 50.3949 489.15 50.726C489.544 51.0398 489.775 51.5248 489.775 52.2764H490.775ZM487.02 49.1875C485.808 49.1875 484.571 49.3746 483.312 49.7449L483.595 50.7043C484.77 50.3584 485.912 50.1875 487.02 50.1875V49.1875ZM483.953 50.2246V49.2578H482.953V50.2246H483.953ZM483.595 49.7375C484.77 49.3916 485.912 49.2207 487.02 49.2207V48.2207C485.808 48.2207 484.571 48.4078 483.312 48.7781L483.595 49.7375ZM487.02 49.2207C488.428 49.2207 489.391 49.5041 489.995 49.9868C490.578 50.4524 490.903 51.1659 490.903 52.2227H491.903C491.903 50.9448 491.497 49.9073 490.619 49.2056C489.762 48.521 488.534 48.2207 487.02 48.2207V49.2207ZM490.903 52.2227V60H491.903V52.2227H490.903ZM491.403 59.5H490.715V60.5H491.403V59.5ZM491.202 59.8876L490.945 58.7704L489.97 58.9952L490.228 60.1124L491.202 59.8876ZM490.224 58.4406C488.871 59.1552 487.582 59.5 486.354 59.5V60.5C487.775 60.5 489.223 60.1001 490.691 59.325L490.224 58.4406ZM486.354 59.5C485.102 59.5 484.256 59.2432 483.729 58.8146C483.222 58.4019 482.933 57.7656 482.933 56.8096H481.933C481.933 57.9805 482.298 58.9394 483.098 59.5902C483.878 60.225 484.992 60.5 486.354 60.5V59.5ZM486.902 53.9141C485.744 53.9141 484.787 54.116 484.107 54.5967C483.396 55.0998 483.061 55.8562 483.061 56.7773H484.061C484.061 56.1229 484.283 55.6977 484.685 55.4131C485.119 55.106 485.832 54.9141 486.902 54.9141V53.9141ZM483.061 56.7773C483.061 57.638 483.333 58.3636 483.945 58.8582C484.537 59.3364 485.369 59.5332 486.354 59.5332V58.5332C485.477 58.5332 484.912 58.3541 484.573 58.0803C484.255 57.823 484.061 57.4206 484.061 56.7773H483.061ZM486.354 59.5332C487.822 59.5332 489.217 59.1419 490.529 58.3682L490.021 57.5068C488.855 58.1941 487.635 58.5332 486.354 58.5332V59.5332ZM490.775 57.9375V54.6289H489.775V57.9375H490.775ZM490.334 54.1325C489.121 53.9872 487.977 53.9141 486.902 53.9141V54.9141C487.932 54.9141 489.036 54.9842 490.215 55.1254L490.334 54.1325ZM494.411 60H493.911V60.5H494.411V60ZM494.411 48.7207V48.2207H493.911V48.7207H494.411ZM495.217 48.7207L495.714 48.6724L495.67 48.2207H495.217V48.7207ZM495.356 50.1602L494.859 50.2084L494.939 51.0391L495.634 50.5762L495.356 50.1602ZM503.703 60V60.5H504.203V60H503.703ZM502.575 60H502.075V60.5H502.575V60ZM495.539 51.1592L495.245 50.7547L495.039 50.9045V51.1592H495.539ZM495.539 60V60.5H496.039V60H495.539ZM494.911 60V48.7207H493.911V60H494.911ZM494.411 49.2207H495.217V48.2207H494.411V49.2207ZM494.719 48.769L494.859 50.2084L495.854 50.1119L495.714 48.6724L494.719 48.769ZM495.634 50.5762C497.012 49.6575 498.327 49.2207 499.589 49.2207V48.2207C498.086 48.2207 496.58 48.7435 495.079 49.7441L495.634 50.5762ZM499.589 49.2207C500.899 49.2207 501.789 49.5055 502.347 49.9879C502.892 50.4583 503.203 51.1888 503.203 52.2764H504.203C504.203 50.9935 503.828 49.9462 503.001 49.2313C502.188 48.5285 501.021 48.2207 499.589 48.2207V49.2207ZM503.203 52.2764V60H504.203V52.2764H503.203ZM503.703 59.5H502.575V60.5H503.703V59.5ZM503.075 60V52.2441H502.075V60H503.075ZM503.075 52.2441C503.075 51.3015 502.785 50.5125 502.134 49.9736C501.5 49.4496 500.605 49.2305 499.535 49.2305V50.2305C500.492 50.2305 501.117 50.4302 501.496 50.7442C501.858 51.0432 502.075 51.511 502.075 52.2441H503.075ZM499.535 49.2305C498.056 49.2305 496.624 49.7527 495.245 50.7547L495.833 51.5636C497.075 50.6607 498.307 50.2305 499.535 50.2305V49.2305ZM495.039 51.1592V60H496.039V51.1592H495.039ZM495.539 59.5H494.411V60.5H495.539V59.5ZM514.929 50.375H515.429V50.022L515.096 49.9038L514.929 50.375ZM514.929 58.5713L515.053 59.0556L515.429 58.9592V58.5713H514.929ZM516.057 59.3232L516.23 59.7924L516.557 59.6719V59.3232H516.057ZM514.929 49.2578L514.781 49.7353L515.429 49.9366V49.2578H514.929ZM514.929 44.6387V44.1387H514.429V44.6387H514.929ZM516.057 44.6387H516.557V44.1387H516.057V44.6387ZM515.096 49.9038C513.953 49.4977 512.765 49.2949 511.534 49.2949V50.2949C512.653 50.2949 513.728 50.4788 514.762 50.8462L515.096 49.9038ZM511.534 49.2949C510.068 49.2949 508.878 49.6717 508.058 50.5121C507.242 51.3501 506.877 52.5641 506.877 54.0596H507.877C507.877 52.7119 508.206 51.7936 508.775 51.2101C509.341 50.6289 510.229 50.2949 511.534 50.2949V49.2949ZM506.877 54.0596C506.877 55.7614 507.234 57.1309 508.034 58.0799C508.848 59.0452 510.047 59.4902 511.534 59.4902V58.4902C510.25 58.4902 509.371 58.1135 508.799 57.4353C508.213 56.7407 507.877 55.6449 507.877 54.0596H506.877ZM511.534 59.4902C512.749 59.4902 513.922 59.3458 515.053 59.0556L514.805 58.087C513.759 58.3554 512.669 58.4902 511.534 58.4902V59.4902ZM515.429 58.5713V50.375H514.429V58.5713H515.429ZM515.884 58.8541C514.733 59.2782 513.253 59.5 511.427 59.5V60.5C513.325 60.5 514.932 60.2707 516.23 59.7924L515.884 58.8541ZM511.427 59.5C509.768 59.5 508.612 59.0395 507.86 58.2001C507.099 57.3502 506.674 56.0255 506.674 54.1348H505.674C505.674 56.1542 506.125 57.7621 507.115 58.8673C508.114 59.983 509.584 60.5 511.427 60.5V59.5ZM506.674 54.1348C506.674 52.4057 507.101 51.201 507.867 50.4256C508.632 49.6514 509.819 49.2207 511.524 49.2207V48.2207C509.662 48.2207 508.174 48.6923 507.156 49.7228C506.139 50.7522 505.674 52.2545 505.674 54.1348H506.674ZM511.524 49.2207C512.587 49.2207 513.672 49.391 514.781 49.7353L515.077 48.7803C513.88 48.4085 512.695 48.2207 511.524 48.2207V49.2207ZM515.429 49.2578V44.6387H514.429V49.2578H515.429ZM514.929 45.1387H516.057V44.1387H514.929V45.1387ZM515.557 44.6387V59.3232H516.557V44.6387H515.557ZM519.054 60H518.554V60.5H519.054V60ZM519.054 48.7207V48.2207H518.554V48.7207H519.054ZM519.86 48.7207L520.358 48.6792L520.32 48.2207H519.86V48.7207ZM519.978 50.1387L519.48 50.1802L519.559 51.1289L520.295 50.5253L519.978 50.1387ZM527.175 50.2676L526.73 50.4937L527.007 51.0407L527.487 50.6589L527.175 50.2676ZM534.899 60V60.5H535.399V60H534.899ZM533.771 60H533.271V60.5H533.771V60ZM527.594 51.1914L527.232 50.8473L527.094 50.992V51.1914H527.594ZM527.594 60V60.5H528.094V60H527.594ZM526.466 60H525.966V60.5H526.466V60ZM520.182 51.1914L519.838 50.8291L519.682 50.9769V51.1914H520.182ZM520.182 60V60.5H520.682V60H520.182ZM519.554 60V48.7207H518.554V60H519.554ZM519.054 49.2207H519.86V48.2207H519.054V49.2207ZM519.362 48.7622L519.48 50.1802L520.476 50.0971L520.358 48.6792L519.362 48.7622ZM520.295 50.5253C521.369 49.6449 522.509 49.2207 523.727 49.2207V48.2207C522.253 48.2207 520.893 48.7418 519.661 49.752L520.295 50.5253ZM523.727 49.2207C525.426 49.2207 526.333 49.7108 526.73 50.4937L527.621 50.0415C526.973 48.7618 525.58 48.2207 523.727 48.2207V49.2207ZM527.487 50.6589C528.717 49.6804 529.924 49.2207 531.118 49.2207V48.2207C529.647 48.2207 528.227 48.7922 526.864 49.8763L527.487 50.6589ZM531.118 49.2207C532.302 49.2207 533.099 49.5141 533.602 50.013C534.104 50.5112 534.399 51.2982 534.399 52.4697H535.399C535.399 51.1419 535.064 50.0544 534.306 49.3029C533.549 48.5522 532.454 48.2207 531.118 48.2207V49.2207ZM534.399 52.4697V60H535.399V52.4697H534.399ZM534.899 59.5H533.771V60.5H534.899V59.5ZM534.271 60V52.4697H533.271V60H534.271ZM534.271 52.4697C534.271 51.483 534.031 50.6505 533.464 50.0667C532.893 49.4803 532.076 49.2305 531.107 49.2305V50.2305C531.914 50.2305 532.429 50.4372 532.747 50.7639C533.067 51.0932 533.271 51.6303 533.271 52.4697H534.271ZM531.107 49.2305C529.561 49.2305 528.256 49.7677 527.232 50.8473L527.957 51.5355C528.781 50.6672 529.818 50.2305 531.107 50.2305V49.2305ZM527.094 51.1914V60H528.094V51.1914H527.094ZM527.594 59.5H526.466V60.5H527.594V59.5ZM526.966 60V52.2871H525.966V60H526.966ZM526.966 52.2871C526.966 51.3481 526.712 50.5546 526.119 50.0034C525.533 49.4587 524.702 49.2305 523.716 49.2305V50.2305C524.565 50.2305 525.108 50.4284 525.439 50.7358C525.762 51.0369 525.966 51.5217 525.966 52.2871H526.966ZM523.716 49.2305C522.248 49.2305 520.949 49.7727 519.838 50.8291L520.527 51.5537C521.464 50.6622 522.521 50.2305 523.716 50.2305V49.2305ZM519.682 51.1914V60H520.682V51.1914H519.682ZM520.182 59.5H519.054V60.5H520.182V59.5ZM545.105 53.6621L545.045 54.1586L545.605 54.2256V53.6621H545.105ZM538.283 50.2246H537.783V50.8928L538.424 50.7043L538.283 50.2246ZM538.283 49.2578L538.142 48.7781L537.783 48.8837V49.2578H538.283ZM546.233 60V60.5H546.733V60H546.233ZM545.545 60L545.058 60.1124L545.147 60.5H545.545V60ZM545.287 58.8828L545.774 58.7704L545.628 58.1373L545.054 58.4406L545.287 58.8828ZM545.105 57.9375L545.359 58.3682L545.605 58.2231V57.9375H545.105ZM545.105 54.6289H545.605V54.1852L545.164 54.1325L545.105 54.6289ZM537.763 56.8096C537.763 55.8102 538.087 55.1337 538.681 54.6874C539.301 54.2209 540.29 53.9473 541.732 53.9473V52.9473C540.194 52.9473 538.949 53.234 538.079 53.8883C537.183 54.5627 536.763 55.5674 536.763 56.8096H537.763ZM541.732 53.9473C542.762 53.9473 543.866 54.0174 545.045 54.1586L545.164 53.1657C543.951 53.0204 542.807 52.9473 541.732 52.9473V53.9473ZM545.605 53.6621V52.2764H544.605V53.6621H545.605ZM545.605 52.2764C545.605 51.3021 545.293 50.4926 544.602 49.9434C543.933 49.4115 542.988 49.1875 541.85 49.1875V50.1875C542.882 50.1875 543.563 50.3949 543.98 50.726C544.374 51.0398 544.605 51.5248 544.605 52.2764H545.605ZM541.85 49.1875C540.638 49.1875 539.401 49.3746 538.142 49.7449L538.424 50.7043C539.6 50.3584 540.742 50.1875 541.85 50.1875V49.1875ZM538.783 50.2246V49.2578H537.783V50.2246H538.783ZM538.424 49.7375C539.6 49.3916 540.742 49.2207 541.85 49.2207V48.2207C540.638 48.2207 539.401 48.4078 538.142 48.7781L538.424 49.7375ZM541.85 49.2207C543.257 49.2207 544.221 49.5041 544.825 49.9868C545.407 50.4524 545.733 51.1659 545.733 52.2227H546.733C546.733 50.9448 546.327 49.9073 545.449 49.2056C544.592 48.521 543.364 48.2207 541.85 48.2207V49.2207ZM545.733 52.2227V60H546.733V52.2227H545.733ZM546.233 59.5H545.545V60.5H546.233V59.5ZM546.032 59.8876L545.774 58.7704L544.8 58.9952L545.058 60.1124L546.032 59.8876ZM545.054 58.4406C543.7 59.1552 542.412 59.5 541.184 59.5V60.5C542.605 60.5 544.052 60.1001 545.521 59.325L545.054 58.4406ZM541.184 59.5C539.932 59.5 539.085 59.2432 538.559 58.8146C538.052 58.4019 537.763 57.7656 537.763 56.8096H536.763C536.763 57.9805 537.128 58.9394 537.927 59.5902C538.708 60.225 539.822 60.5 541.184 60.5V59.5ZM541.732 53.9141C540.574 53.9141 539.617 54.116 538.937 54.5967C538.226 55.0998 537.891 55.8562 537.891 56.7773H538.891C538.891 56.1229 539.112 55.6977 539.515 55.4131C539.949 55.106 540.662 54.9141 541.732 54.9141V53.9141ZM537.891 56.7773C537.891 57.638 538.162 58.3636 538.775 58.8582C539.367 59.3364 540.198 59.5332 541.184 59.5332V58.5332C540.307 58.5332 539.742 58.3541 539.403 58.0803C539.085 57.823 538.891 57.4206 538.891 56.7773H537.891ZM541.184 59.5332C542.652 59.5332 544.046 59.1419 545.359 58.3682L544.851 57.5068C543.685 58.1941 542.465 58.5332 541.184 58.5332V59.5332ZM545.605 57.9375V54.6289H544.605V57.9375H545.605ZM545.164 54.1325C543.951 53.9872 542.807 53.9141 541.732 53.9141V54.9141C542.762 54.9141 543.866 54.9842 545.045 55.1254L545.164 54.1325ZM557.459 50.375H557.959V50.022L557.626 49.9038L557.459 50.375ZM557.459 58.5713L557.583 59.0556L557.959 58.9592V58.5713H557.459ZM558.586 59.3232L558.759 59.7924L559.086 59.6719V59.3232H558.586ZM557.459 49.2578L557.31 49.7353L557.959 49.9366V49.2578H557.459ZM557.459 44.6387V44.1387H556.959V44.6387H557.459ZM558.586 44.6387H559.086V44.1387H558.586V44.6387ZM557.626 49.9038C556.483 49.4977 555.295 49.2949 554.064 49.2949V50.2949C555.182 50.2949 556.257 50.4788 557.291 50.8462L557.626 49.9038ZM554.064 49.2949C552.598 49.2949 551.407 49.6717 550.588 50.5121C549.771 51.3501 549.407 52.5641 549.407 54.0596H550.407C550.407 52.7119 550.735 51.7936 551.304 51.2101C551.871 50.6289 552.759 50.2949 554.064 50.2949V49.2949ZM549.407 54.0596C549.407 55.7614 549.764 57.1309 550.564 58.0799C551.378 59.0452 552.577 59.4902 554.064 59.4902V58.4902C552.78 58.4902 551.9 58.1135 551.328 57.4353C550.743 56.7407 550.407 55.6449 550.407 54.0596H549.407ZM554.064 59.4902C555.279 59.4902 556.452 59.3458 557.583 59.0556L557.334 58.087C556.288 58.3554 555.198 58.4902 554.064 58.4902V59.4902ZM557.959 58.5713V50.375H556.959V58.5713H557.959ZM558.414 58.8541C557.263 59.2782 555.783 59.5 553.957 59.5V60.5C555.854 60.5 557.461 60.2707 558.759 59.7924L558.414 58.8541ZM553.957 59.5C552.298 59.5 551.141 59.0395 550.389 58.2001C549.628 57.3502 549.204 56.0255 549.204 54.1348H548.204C548.204 56.1542 548.655 57.7621 549.644 58.8673C550.644 59.983 552.113 60.5 553.957 60.5V59.5ZM549.204 54.1348C549.204 52.4057 549.631 51.201 550.397 50.4256C551.162 49.6514 552.349 49.2207 554.053 49.2207V48.2207C552.191 48.2207 550.704 48.6923 549.685 49.7228C548.668 50.7522 548.204 52.2545 548.204 54.1348H549.204ZM554.053 49.2207C555.116 49.2207 556.201 49.391 557.31 49.7353L557.607 48.7803C556.41 48.4085 555.225 48.2207 554.053 48.2207V49.2207ZM557.959 49.2578V44.6387H556.959V49.2578H557.959ZM557.459 45.1387H558.586V44.1387H557.459V45.1387ZM558.086 44.6387V59.3232H559.086V44.6387H558.086ZM570.736 54.6074V55.1074H571.21L571.236 54.6344L570.736 54.6074ZM562.175 54.6074V54.1074H561.675V54.6074H562.175ZM570.274 58.4961H570.774V57.7849L570.105 58.0256L570.274 58.4961ZM570.274 59.4629L570.444 59.9334L570.774 59.8144V59.4629H570.274ZM562.175 53.5977L561.675 53.5731L561.65 54.0977H562.175V53.5977ZM569.673 53.5977V54.0977H570.181L570.173 53.5895L569.673 53.5977ZM566.128 49.2207C567.58 49.2207 568.582 49.6202 569.229 50.3369C569.886 51.0632 570.258 52.202 570.258 53.8447H571.258C571.258 52.0715 570.858 50.6482 569.971 49.6665C569.076 48.6752 567.762 48.2207 566.128 48.2207V49.2207ZM570.258 53.8447C570.258 54.0785 570.251 54.3237 570.237 54.5804L571.236 54.6344C571.25 54.3612 571.258 54.098 571.258 53.8447H570.258ZM570.736 54.1074H562.175V55.1074H570.736V54.1074ZM561.675 54.6074C561.675 56.1672 562.089 57.427 563.002 58.2902C563.91 59.1483 565.227 59.5332 566.858 59.5332V58.5332C565.367 58.5332 564.342 58.1805 563.689 57.5633C563.041 56.9513 562.675 55.9982 562.675 54.6074H561.675ZM566.858 59.5332C568.186 59.5332 569.384 59.3478 570.444 58.9666L570.105 58.0256C569.174 58.3605 568.094 58.5332 566.858 58.5332V59.5332ZM569.774 58.4961V59.4629H570.774V58.4961H569.774ZM570.105 58.9924C569.174 59.3273 568.094 59.5 566.858 59.5V60.5C568.186 60.5 569.384 60.3146 570.444 59.9334L570.105 58.9924ZM566.858 59.5C564.997 59.5 563.694 59.0384 562.852 58.203C562.011 57.3683 561.547 56.0763 561.547 54.2314H560.547C560.547 56.2323 561.051 57.8246 562.148 58.9127C563.243 60.0002 564.845 60.5 566.858 60.5V59.5ZM561.547 54.2314C561.547 52.462 561.956 51.2281 562.685 50.4373C563.407 49.6542 564.522 49.2207 566.128 49.2207V48.2207C564.346 48.2207 562.921 48.7057 561.95 49.7595C560.985 50.8056 560.547 52.3271 560.547 54.2314H561.547ZM562.175 54.0977H569.673V53.0977H562.175V54.0977ZM570.173 53.5895C570.15 52.2151 569.829 51.094 569.126 50.3141C568.413 49.5232 567.383 49.166 566.128 49.166V50.166C567.194 50.166 567.915 50.4641 568.383 50.9837C568.862 51.5144 569.152 52.3591 569.173 53.6059L570.173 53.5895ZM566.128 49.166C564.79 49.166 563.689 49.5172 562.907 50.2944C562.129 51.068 561.743 52.1893 561.675 53.5731L562.674 53.6222C562.735 52.3849 563.072 51.5404 563.612 51.0034C564.149 50.4701 564.959 50.166 566.128 50.166V49.166Z" fill="#1D372E"/>
<path d="M145.35 36L157.987 8.07031H160.448L173.123 36H145.35ZM169.881 34.2422L159.08 9.67188L148.358 34.2422H169.881ZM176.132 36V15.4922H177.597L177.851 18.1094C180.468 16.3646 183.033 15.4922 185.546 15.4922C190.533 15.4922 193.027 17.6471 193.027 21.957V43.4219H190.976V21.8984C190.976 18.8516 189.133 17.3281 185.448 17.3281C182.988 17.3281 180.566 18.194 178.183 19.9258V36H176.132ZM215.781 15.4922V36H214.277L214.043 33.3828C210.905 35.1276 208.21 36 205.957 36C203.561 36 201.693 35.2188 200.352 33.6562V43.4219H198.496V15.4922H200.352V28.6172C200.352 32.3151 202.448 34.1641 206.641 34.1641C208.711 34.1641 211.074 33.2982 213.73 31.5664V15.4922H215.781ZM221.251 36V15.4922H222.716L222.97 18.1094C225.587 16.3646 228.152 15.4922 230.665 15.4922C235.652 15.4922 238.145 17.6471 238.145 21.957V43.4219H236.095V21.8984C236.095 18.8516 234.252 17.3281 230.567 17.3281C228.106 17.3281 225.684 18.194 223.302 19.9258V36H221.251ZM230.802 8.07031H233.907L229.239 12.7383H227.598L230.802 8.07031ZM240.49 15.4922H254.045V17.25H247.892V28.7734C247.892 32.4323 249.338 34.2617 252.228 34.2617C252.371 34.2617 252.521 34.2552 252.677 34.2422V36C252.248 36.0521 251.838 36.0781 251.447 36.0781C247.71 36.0781 245.841 33.6432 245.841 28.7734V17.25H240.49V15.4922ZM259.416 32.7969C261.877 33.6302 264.11 34.0469 266.116 34.0469C271.676 34.0469 274.455 31.1172 274.455 25.2578C274.455 19.9714 271.884 17.3281 266.741 17.3281C261.858 17.3281 259.416 19.9714 259.416 25.2578V32.7969ZM257.366 25.2578C257.366 18.7474 260.504 15.4922 266.78 15.4922C273.225 15.4922 276.448 18.7474 276.448 25.2578C276.448 32.4193 273.01 36 266.135 36C264.234 36 261.995 35.6094 259.416 34.8281V43.4219H257.366V25.2578ZM280.726 36V15.4922H282.191L282.445 18.1094C285.062 16.3646 287.627 15.4922 290.14 15.4922C295.127 15.4922 297.62 17.6471 297.62 21.957V43.4219H295.57V21.8984C295.57 18.8516 293.727 17.3281 290.042 17.3281C287.581 17.3281 285.159 18.194 282.777 19.9258V36H280.726ZM317.816 18.2266C316.358 17.5755 314.633 17.25 312.641 17.25C306.794 17.25 303.871 19.7826 303.871 24.8477C303.871 28.5326 305.733 30.8568 309.457 31.8203L312.523 32.6992C316.43 33.6628 318.383 35.4466 318.383 38.0508C318.383 41.6315 315.518 43.4219 309.789 43.4219V41.6641C314.177 41.6641 316.371 40.4857 316.371 38.1289C316.371 36.3581 314.932 35.1211 312.055 34.418L308.168 33.2266C304.001 32.1979 301.918 29.431 301.918 24.9258C301.918 18.6367 305.492 15.4922 312.641 15.4922C314.633 15.4922 316.358 15.8177 317.816 16.4688V18.2266ZM330.67 36V8.07031H352.252V36H350.201V9.82812H332.72V36H330.67ZM358.6 25.668C358.6 31.3841 361.172 34.2422 366.315 34.2422C371.458 34.2422 374.03 31.3841 374.03 25.668C374.03 20.056 371.458 17.25 366.315 17.25C361.172 17.25 358.6 20.056 358.6 25.668ZM356.549 25.7461C356.549 18.9102 359.804 15.4922 366.315 15.4922C372.825 15.4922 376.08 18.9102 376.08 25.7461C376.08 32.569 372.825 35.9805 366.315 35.9805C359.83 35.9805 356.575 32.569 356.549 25.7461ZM380.163 27.4453V15.4922H382.214V27.4453C382.214 32.1068 384.493 34.4375 389.05 34.4375C393.607 34.4375 395.886 32.1068 395.886 27.4453V15.4922H397.937V27.4453C397.937 33.2786 394.974 36.1953 389.05 36.1953C383.126 36.1953 380.163 33.2786 380.163 27.4453ZM409.695 15.4727C408.458 12.3867 406.655 10.4141 404.285 9.55469L404.891 7.91406C407.911 8.83854 410.177 11.1628 411.688 14.8867L420.594 36H418.328L410.75 17.543L403.211 36H400.848L409.695 15.4727ZM423.72 36V15.4922H425.184L425.438 18.1094C428.055 16.3646 430.621 15.4922 433.134 15.4922C438.121 15.4922 440.614 17.6471 440.614 21.957V43.4219H438.563V21.8984C438.563 18.8516 436.721 17.3281 433.036 17.3281C430.575 17.3281 428.153 18.194 425.77 19.9258V36H423.72ZM463.369 15.4922V36H461.865L461.63 33.3828C458.492 35.1276 455.797 36 453.545 36C451.149 36 449.28 35.2188 447.939 33.6562V43.4219H446.084V15.4922H447.939V28.6172C447.939 32.3151 450.035 34.1641 454.228 34.1641C456.298 34.1641 458.662 33.2982 461.318 31.5664V15.4922H463.369ZM481.827 18.2266C479.873 17.4453 477.79 17.0547 475.577 17.0547C471.801 17.0547 469.913 18.3047 469.913 20.8047C469.913 23.2526 472.028 24.4766 476.26 24.4766H480.069V26.2344H476.202C471.879 26.2344 469.717 27.6016 469.717 30.3359C469.717 33.0703 471.67 34.4375 475.577 34.4375C477.79 34.4375 479.873 34.0469 481.827 33.2656V35.2188C479.873 35.8698 477.79 36.1953 475.577 36.1953C470.303 36.1953 467.666 34.2422 467.666 30.3359C467.666 27.7318 469.086 26.0716 471.924 25.3555C469.216 24.5872 467.862 23.0703 467.862 20.8047C467.862 17.1328 470.498 15.2969 475.772 15.2969C477.855 15.2969 479.873 15.6224 481.827 16.2734V18.2266ZM475.85 8.07031H478.955L474.288 12.7383H472.647L475.85 8.07031ZM483.195 15.4922H485.538L493.038 34.2227L500.577 15.4922H502.921L494.191 36H491.808L483.195 15.4922ZM506.32 25.668C506.32 31.3841 508.892 34.2422 514.035 34.2422C519.178 34.2422 521.75 31.3841 521.75 25.668C521.75 20.056 519.178 17.25 514.035 17.25C508.892 17.25 506.32 20.056 506.32 25.668ZM504.27 25.7461C504.27 18.9102 507.525 15.4922 514.035 15.4922C520.546 15.4922 523.801 18.9102 523.801 25.7461C523.801 32.569 520.546 35.9805 514.035 35.9805C507.551 35.9805 504.296 32.569 504.27 25.7461ZM542.805 18.2266C541.347 17.5755 539.622 17.25 537.63 17.25C531.783 17.25 528.86 19.7826 528.86 24.8477C528.86 28.5326 530.722 30.8568 534.446 31.8203L537.513 32.6992C541.419 33.6628 543.372 35.4466 543.372 38.0508C543.372 41.6315 540.507 43.4219 534.778 43.4219V41.6641C539.166 41.6641 541.36 40.4857 541.36 38.1289C541.36 36.3581 539.921 35.1211 537.044 34.418L533.157 33.2266C528.99 32.1979 526.907 29.431 526.907 24.9258C526.907 18.6367 530.481 15.4922 537.63 15.4922C539.622 15.4922 541.347 15.8177 542.805 16.4688V18.2266Z" fill="#350541"/>
<path d="M145.349 35.9992L144.893 35.7931L144.574 36.4992H145.349V35.9992ZM157.986 8.0695V7.56951H157.663L157.53 7.8634L157.986 8.0695ZM160.447 8.0695L160.902 7.86287L160.769 7.56951H160.447V8.0695ZM173.122 35.9992V36.4992H173.898L173.578 35.7926L173.122 35.9992ZM169.88 34.2414V34.7414H170.646L170.338 34.0402L169.88 34.2414ZM159.079 9.67107L159.537 9.46986L159.078 8.42482L158.621 9.47109L159.079 9.67107ZM148.357 34.2414L147.899 34.0414L147.593 34.7414H148.357V34.2414ZM145.805 36.2053L158.441 8.27561L157.53 7.8634L144.893 35.7931L145.805 36.2053ZM157.986 8.5695H160.447V7.56951H157.986V8.5695ZM159.991 8.27614L172.667 36.2058L173.578 35.7926L160.902 7.86287L159.991 8.27614ZM173.122 35.4992H145.349V36.4992H173.122V35.4992ZM170.338 34.0402L159.537 9.46986L158.622 9.87228L169.423 34.4426L170.338 34.0402ZM158.621 9.47109L147.899 34.0414L148.815 34.4414L159.538 9.87105L158.621 9.47109ZM148.357 34.7414H169.88V33.7414H148.357V34.7414ZM176.131 35.9992H175.631V36.4992H176.131V35.9992ZM176.131 15.4914V14.9914H175.631V15.4914H176.131ZM177.596 15.4914L178.094 15.4431L178.05 14.9914H177.596V15.4914ZM177.85 18.1086L177.352 18.1569L177.433 18.9875L178.127 18.5246L177.85 18.1086ZM193.026 43.4211V43.9211H193.526V43.4211H193.026ZM190.975 43.4211H190.475V43.9211H190.975V43.4211ZM178.182 19.925L177.888 19.5205L177.682 19.6703V19.925H178.182ZM178.182 35.9992V36.4992H178.682V35.9992H178.182ZM176.631 35.9992V15.4914H175.631V35.9992H176.631ZM176.131 15.9914H177.596V14.9914H176.131V15.9914ZM177.098 15.5397L177.352 18.1569L178.347 18.0603L178.094 15.4431L177.098 15.5397ZM178.127 18.5246C180.683 16.8208 183.153 15.9914 185.545 15.9914V14.9914C182.911 14.9914 180.251 15.9068 177.572 17.6925L178.127 18.5246ZM185.545 15.9914C187.978 15.9914 189.709 16.5186 190.829 17.4859C191.934 18.4411 192.526 19.8989 192.526 21.9562H193.526C193.526 19.7036 192.871 17.929 191.482 16.7293C190.108 15.5417 188.099 14.9914 185.545 14.9914V15.9914ZM192.526 21.9562V43.4211H193.526V21.9562H192.526ZM193.026 42.9211H190.975V43.9211H193.026V42.9211ZM191.475 43.4211V21.8976H190.475V43.4211H191.475ZM191.475 21.8976C191.475 20.2694 190.978 18.9663 189.912 18.0846C188.863 17.2179 187.346 16.8273 185.447 16.8273V17.8273C187.233 17.8273 188.48 18.1985 189.274 18.8552C190.05 19.4969 190.475 20.479 190.475 21.8976H191.475ZM185.447 16.8273C182.861 16.8273 180.339 17.7392 177.888 19.5205L178.476 20.3294C180.79 18.6472 183.112 17.8273 185.447 17.8273V16.8273ZM177.682 19.925V35.9992H178.682V19.925H177.682ZM178.182 35.4992H176.131V36.4992H178.182V35.4992ZM215.78 15.4914H216.28V14.9914H215.78V15.4914ZM215.78 35.9992V36.4992H216.28V35.9992H215.78ZM214.276 35.9992L213.778 36.0438L213.819 36.4992H214.276V35.9992ZM214.042 33.382L214.54 33.3374L214.471 32.5712L213.799 32.945L214.042 33.382ZM200.351 33.6554L200.73 33.3298L199.851 32.3052V33.6554H200.351ZM200.351 43.4211V43.9211H200.851V43.4211H200.351ZM198.495 43.4211H197.995V43.9211H198.495V43.4211ZM198.495 15.4914V14.9914H197.995V15.4914H198.495ZM200.351 15.4914H200.851V14.9914H200.351V15.4914ZM213.729 31.5656L214.003 31.9845L214.229 31.8365V31.5656H213.729ZM213.729 15.4914V14.9914H213.229V15.4914H213.729ZM215.28 15.4914V35.9992H216.28V15.4914H215.28ZM215.78 35.4992H214.276V36.4992H215.78V35.4992ZM214.774 35.9546L214.54 33.3374L213.544 33.4266L213.778 36.0438L214.774 35.9546ZM213.799 32.945C210.696 34.6706 208.087 35.4992 205.956 35.4992V36.4992C208.33 36.4992 211.112 35.583 214.285 33.819L213.799 32.945ZM205.956 35.4992C203.68 35.4992 201.96 34.763 200.73 33.3298L199.971 33.9811C201.423 35.6729 203.441 36.4992 205.956 36.4992V35.4992ZM199.851 33.6554V43.4211H200.851V33.6554H199.851ZM200.351 42.9211H198.495V43.9211H200.351V42.9211ZM198.995 43.4211V15.4914H197.995V43.4211H198.995ZM198.495 15.9914H200.351V14.9914H198.495V15.9914ZM199.851 15.4914V28.6164H200.851V15.4914H199.851ZM199.851 28.6164C199.851 30.5598 200.404 32.1039 201.592 33.1515C202.768 34.1886 204.481 34.6633 206.64 34.6633V33.6633C204.606 33.6633 203.174 33.2135 202.254 32.4016C201.345 31.6002 200.851 30.3708 200.851 28.6164H199.851ZM206.64 34.6633C208.846 34.6633 211.305 33.743 214.003 31.9845L213.456 31.1468C210.841 32.8517 208.574 33.6633 206.64 33.6633V34.6633ZM214.229 31.5656V15.4914H213.229V31.5656H214.229ZM213.729 15.9914H215.78V14.9914H213.729V15.9914ZM221.25 35.9992H220.75V36.4992H221.25V35.9992ZM221.25 15.4914V14.9914H220.75V15.4914H221.25ZM222.715 15.4914L223.212 15.4431L223.168 14.9914H222.715V15.4914ZM222.969 18.1086L222.471 18.1569L222.551 18.9875L223.246 18.5246L222.969 18.1086ZM238.144 43.4211V43.9211H238.644V43.4211H238.144ZM236.094 43.4211H235.594V43.9211H236.094V43.4211ZM223.301 19.925L223.007 19.5205L222.801 19.6703V19.925H223.301ZM223.301 35.9992V36.4992H223.801V35.9992H223.301ZM230.801 8.0695V7.56951H230.537L230.388 7.7866L230.801 8.0695ZM233.906 8.0695L234.26 8.42307L235.113 7.56951H233.906V8.0695ZM229.238 12.7375V13.2375H229.445L229.592 13.091L229.238 12.7375ZM227.597 12.7375L227.185 12.4546L226.648 13.2375H227.597V12.7375ZM221.75 35.9992V15.4914H220.75V35.9992H221.75ZM221.25 15.9914H222.715V14.9914H221.25V15.9914ZM222.217 15.5397L222.471 18.1569L223.466 18.0603L223.212 15.4431L222.217 15.5397ZM223.246 18.5246C225.802 16.8208 228.272 15.9914 230.664 15.9914V14.9914C228.03 14.9914 225.37 15.9068 222.691 17.6925L223.246 18.5246ZM230.664 15.9914C233.097 15.9914 234.828 16.5186 235.947 17.4859C237.053 18.4411 237.644 19.8989 237.644 21.9562H238.644C238.644 19.7036 237.989 17.929 236.601 16.7293C235.227 15.5417 233.218 14.9914 230.664 14.9914V15.9914ZM237.644 21.9562V43.4211H238.644V21.9562H237.644ZM238.144 42.9211H236.094V43.9211H238.144V42.9211ZM236.594 43.4211V21.8976H235.594V43.4211H236.594ZM236.594 21.8976C236.594 20.2694 236.097 18.9663 235.03 18.0846C233.982 17.2179 232.465 16.8273 230.566 16.8273V17.8273C232.352 17.8273 233.599 18.1985 234.393 18.8552C235.169 19.4969 235.594 20.479 235.594 21.8976H236.594ZM230.566 16.8273C227.98 16.8273 225.458 17.7392 223.007 19.5205L223.595 20.3294C225.909 18.6472 228.23 17.8273 230.566 17.8273V16.8273ZM222.801 19.925V35.9992H223.801V19.925H222.801ZM223.301 35.4992H221.25V36.4992H223.301V35.4992ZM230.801 8.5695H233.906V7.56951H230.801V8.5695ZM233.552 7.71596L228.885 12.3839L229.592 13.091L234.26 8.42307L233.552 7.71596ZM229.238 12.2375H227.597V13.2375H229.238V12.2375ZM228.01 13.0204L231.213 8.35241L230.388 7.7866L227.185 12.4546L228.01 13.0204ZM240.489 15.4914V14.9914H239.989V15.4914H240.489ZM254.044 15.4914H254.544V14.9914H254.044V15.4914ZM254.044 17.2492V17.7492H254.544V17.2492H254.044ZM247.891 17.2492V16.7492H247.391V17.2492H247.891ZM252.676 34.2414H253.176V33.698L252.635 33.7431L252.676 34.2414ZM252.676 35.9992L252.737 36.4956L253.176 36.4423V35.9992H252.676ZM245.84 17.2492H246.34V16.7492H245.84V17.2492ZM240.489 17.2492H239.989V17.7492H240.489V17.2492ZM240.489 15.9914H254.044V14.9914H240.489V15.9914ZM253.544 15.4914V17.2492H254.544V15.4914H253.544ZM254.044 16.7492H247.891V17.7492H254.044V16.7492ZM247.391 17.2492V28.7726H248.391V17.2492H247.391ZM247.391 28.7726C247.391 30.6544 247.761 32.158 248.583 33.1988C249.423 34.262 250.669 34.7609 252.227 34.7609V33.7609C250.894 33.7609 249.973 33.3451 249.368 32.5789C248.744 31.7902 248.391 30.5497 248.391 28.7726H247.391ZM252.227 34.7609C252.385 34.7609 252.549 34.7537 252.718 34.7397L252.635 33.7431C252.491 33.7551 252.355 33.7609 252.227 33.7609V34.7609ZM252.176 34.2414V35.9992H253.176V34.2414H252.176ZM252.616 35.5028C252.204 35.5528 251.814 35.5773 251.446 35.5773V36.5773C251.859 36.5773 252.289 36.5498 252.737 36.4956L252.616 35.5028ZM251.446 35.5773C249.695 35.5773 248.457 35.0138 247.638 33.9468C246.8 32.8547 246.34 31.1576 246.34 28.7726H245.34C245.34 31.2574 245.815 33.2128 246.845 34.5555C247.895 35.9234 249.46 36.5773 251.446 36.5773V35.5773ZM246.34 28.7726V17.2492H245.34V28.7726H246.34ZM245.84 16.7492H240.489V17.7492H245.84V16.7492ZM240.989 17.2492V15.4914H239.989V17.2492H240.989ZM259.415 32.7961H258.915V33.1547L259.255 33.2697L259.415 32.7961ZM259.415 34.8273L259.56 34.3488L258.915 34.1534V34.8273H259.415ZM259.415 43.4211V43.9211H259.915V43.4211H259.415ZM257.365 43.4211H256.865V43.9211H257.365V43.4211ZM259.255 33.2697C261.753 34.1156 264.041 34.5461 266.115 34.5461V33.5461C264.177 33.5461 262 33.1432 259.576 32.3225L259.255 33.2697ZM266.115 34.5461C268.979 34.5461 271.217 33.7902 272.732 32.193C274.243 30.6006 274.954 28.2574 274.954 25.257H273.954C273.954 28.116 273.276 30.1673 272.007 31.5046C270.742 32.8371 268.811 33.5461 266.115 33.5461V34.5461ZM274.954 25.257C274.954 22.5401 274.294 20.4099 272.884 18.9611C271.472 17.5097 269.392 16.8273 266.74 16.8273V17.8273C269.231 17.8273 271.008 18.4666 272.167 19.6584C273.329 20.8528 273.954 22.6875 273.954 25.257H274.954ZM266.74 16.8273C264.211 16.8273 262.225 17.5137 260.879 18.9705C259.541 20.4198 258.915 22.5461 258.915 25.257H259.915C259.915 22.6814 260.511 20.843 261.614 19.649C262.71 18.4625 264.386 17.8273 266.74 17.8273V16.8273ZM258.915 25.257V32.7961H259.915V25.257H258.915ZM257.865 25.257C257.865 22.0744 258.632 19.7801 260.078 18.2798C261.521 16.783 263.722 15.9914 266.779 15.9914V14.9914C263.559 14.9914 261.053 15.8274 259.358 17.5858C257.666 19.3407 256.865 21.9292 256.865 25.257H257.865ZM266.779 15.9914C269.923 15.9914 272.19 16.7849 273.674 18.2846C275.16 19.7852 275.947 22.0776 275.947 25.257H276.947C276.947 21.926 276.122 19.3356 274.385 17.581C272.647 15.8255 270.08 14.9914 266.779 14.9914V15.9914ZM275.947 25.257C275.947 28.7657 275.104 31.3044 273.508 32.9674C271.915 34.6265 269.489 35.4992 266.134 35.4992V36.4992C269.654 36.4992 272.385 35.5815 274.229 33.6599C276.07 31.7422 276.947 28.9098 276.947 25.257H275.947ZM266.134 35.4992C264.298 35.4992 262.109 35.1212 259.56 34.3488L259.27 35.3058C261.878 36.0959 264.168 36.4992 266.134 36.4992V35.4992ZM258.915 34.8273V43.4211H259.915V34.8273H258.915ZM259.415 42.9211H257.365V43.9211H259.415V42.9211ZM257.865 43.4211V25.257H256.865V43.4211H257.865ZM280.725 35.9992H280.225V36.4992H280.725V35.9992ZM280.725 15.4914V14.9914H280.225V15.4914H280.725ZM282.19 15.4914L282.687 15.4431L282.643 14.9914H282.19V15.4914ZM282.444 18.1086L281.946 18.1569L282.026 18.9875L282.721 18.5246L282.444 18.1086ZM297.619 43.4211V43.9211H298.119V43.4211H297.619ZM295.569 43.4211H295.069V43.9211H295.569V43.4211ZM282.776 19.925L282.482 19.5205L282.276 19.6703V19.925H282.776ZM282.776 35.9992V36.4992H283.276V35.9992H282.776ZM281.225 35.9992V15.4914H280.225V35.9992H281.225ZM280.725 15.9914H282.19V14.9914H280.725V15.9914ZM281.692 15.5397L281.946 18.1569L282.941 18.0603L282.687 15.4431L281.692 15.5397ZM282.721 18.5246C285.277 16.8208 287.747 15.9914 290.139 15.9914V14.9914C287.505 14.9914 284.845 15.9068 282.166 17.6925L282.721 18.5246ZM290.139 15.9914C292.572 15.9914 294.303 16.5186 295.422 17.4859C296.528 18.4411 297.119 19.8989 297.119 21.9562H298.119C298.119 19.7036 297.464 17.929 296.076 16.7293C294.702 15.5417 292.693 14.9914 290.139 14.9914V15.9914ZM297.119 21.9562V43.4211H298.119V21.9562H297.119ZM297.619 42.9211H295.569V43.9211H297.619V42.9211ZM296.069 43.4211V21.8976H295.069V43.4211H296.069ZM296.069 21.8976C296.069 20.2694 295.572 18.9663 294.505 18.0846C293.457 17.2179 291.94 16.8273 290.041 16.8273V17.8273C291.827 17.8273 293.074 18.1985 293.868 18.8552C294.644 19.4969 295.069 20.479 295.069 21.8976H296.069ZM290.041 16.8273C287.455 16.8273 284.933 17.7392 282.482 19.5205L283.07 20.3294C285.384 18.6472 287.705 17.8273 290.041 17.8273V16.8273ZM282.276 19.925V35.9992H283.276V19.925H282.276ZM282.776 35.4992H280.725V36.4992H282.776V35.4992ZM317.815 18.2258L317.612 18.6823L318.315 18.9965V18.2258H317.815ZM309.456 31.8195L309.594 31.3387L309.581 31.3355L309.456 31.8195ZM312.522 32.6984L312.385 33.1791L312.394 33.1816L312.403 33.1839L312.522 32.6984ZM309.788 43.4211H309.288V43.9211H309.788V43.4211ZM309.788 41.6633V41.1633H309.288V41.6633H309.788ZM312.054 34.4172L311.907 34.8952L311.921 34.8994L311.935 34.9029L312.054 34.4172ZM308.167 33.2258L308.314 32.7477L308.3 32.7437L308.287 32.7403L308.167 33.2258ZM317.815 16.468H318.315V16.1436L318.019 16.0114L317.815 16.468ZM318.019 17.7692C316.483 17.0834 314.685 16.7492 312.64 16.7492V17.7492C314.578 17.7492 316.231 18.0661 317.612 18.6823L318.019 17.7692ZM312.64 16.7492C309.656 16.7492 307.324 17.394 305.735 18.7707C304.132 20.1593 303.37 22.2171 303.37 24.8469H304.37C304.37 22.4116 305.069 20.6705 306.39 19.5265C307.724 18.3707 309.777 17.7492 312.64 17.7492V16.7492ZM303.37 24.8469C303.37 26.7753 303.859 28.3961 304.876 29.6663C305.892 30.9344 307.395 31.8027 309.331 32.3036L309.581 31.3355C307.793 30.8728 306.503 30.0972 305.657 29.0411C304.812 27.9871 304.37 26.6033 304.37 24.8469H303.37ZM309.318 32.3002L312.385 33.1791L312.66 32.2178L309.594 31.3389L309.318 32.3002ZM312.403 33.1839C314.313 33.6552 315.689 34.3144 316.58 35.1282C317.454 35.927 317.882 36.8909 317.882 38.05H318.882C318.882 36.6049 318.333 35.3747 317.254 34.3898C316.192 33.4197 314.638 32.7052 312.642 32.213L312.403 33.1839ZM317.882 38.05C317.882 39.6804 317.244 40.8569 315.968 41.6543C314.653 42.4762 312.617 42.9211 309.788 42.9211V43.9211C312.689 43.9211 314.949 43.4708 316.498 42.5023C318.087 41.5093 318.882 40.0003 318.882 38.05H317.882ZM310.288 43.4211V41.6633H309.288V43.4211H310.288ZM309.788 42.1633C312.01 42.1633 313.755 41.8676 314.961 41.22C315.572 40.8921 316.055 40.4681 316.384 39.9384C316.713 39.4072 316.87 38.7978 316.87 38.1281H315.87C315.87 38.6368 315.753 39.0585 315.534 39.4111C315.314 39.7651 314.975 40.0776 314.488 40.339C313.5 40.8697 311.954 41.1633 309.788 41.1633V42.1633ZM316.87 38.1281C316.87 37.0856 316.438 36.1989 315.617 35.4931C314.814 34.8024 313.649 34.2922 312.172 33.9315L311.935 34.9029C313.336 35.2452 314.33 35.7051 314.965 36.2514C315.583 36.7826 315.87 37.3998 315.87 38.1281H316.87ZM312.2 33.9391L308.314 32.7477L308.02 33.7038L311.907 34.8952L312.2 33.9391ZM308.287 32.7403C306.288 32.2468 304.836 31.3496 303.879 30.0783C302.92 28.8045 302.417 27.1018 302.417 24.925H301.417C301.417 27.2534 301.956 29.1868 303.08 30.6798C304.206 32.1755 305.88 33.1761 308.047 33.7112L308.287 32.7403ZM302.417 24.925C302.417 21.8753 303.281 19.6744 304.928 18.2252C306.587 16.7652 309.128 15.9914 312.64 15.9914V14.9914C309.003 14.9914 306.182 15.7899 304.267 17.4744C302.34 19.1697 301.417 21.6856 301.417 24.925H302.417ZM312.64 15.9914C314.578 15.9914 316.231 16.3083 317.612 16.9245L318.019 16.0114C316.483 15.3255 314.685 14.9914 312.64 14.9914V15.9914ZM317.315 16.468V18.2258H318.315V16.468H317.315ZM330.669 35.9992H330.169V36.4992H330.669V35.9992ZM330.669 8.0695V7.56951H330.169V8.0695H330.669ZM352.251 8.0695H352.751V7.56951H352.251V8.0695ZM352.251 35.9992V36.4992H352.751V35.9992H352.251ZM350.2 35.9992H349.7V36.4992H350.2V35.9992ZM350.2 9.82732H350.7V9.32732H350.2V9.82732ZM332.719 9.82732V9.32732H332.219V9.82732H332.719ZM332.719 35.9992V36.4992H333.219V35.9992H332.719ZM331.169 35.9992V8.0695H330.169V35.9992H331.169ZM330.669 8.5695H352.251V7.56951H330.669V8.5695ZM351.751 8.0695V35.9992H352.751V8.0695H351.751ZM352.251 35.4992H350.2V36.4992H352.251V35.4992ZM350.7 35.9992V9.82732H349.7V35.9992H350.7ZM350.2 9.32732H332.719V10.3273H350.2V9.32732ZM332.219 9.82732V35.9992H333.219V9.82732H332.219ZM332.719 35.4992H330.669V36.4992H332.719V35.4992ZM356.548 25.7453H356.048V25.7472L356.548 25.7453ZM358.099 25.6672C358.099 28.59 358.755 30.8756 360.156 32.4323C361.566 33.999 363.651 34.7414 366.314 34.7414V33.7414C363.834 33.7414 362.061 33.0547 360.899 31.7634C359.728 30.462 359.099 28.4604 359.099 25.6672H358.099ZM366.314 34.7414C368.977 34.7414 371.062 33.999 372.472 32.4323C373.872 30.8756 374.529 28.59 374.529 25.6672H373.529C373.529 28.4604 372.899 30.462 371.728 31.7634C370.566 33.0547 368.794 33.7414 366.314 33.7414V34.7414ZM374.529 25.6672C374.529 22.7944 373.871 20.5465 372.469 19.0159C371.058 17.4769 368.974 16.7492 366.314 16.7492V17.7492C368.797 17.7492 370.57 18.4244 371.731 19.6915C372.9 20.9668 373.529 22.928 373.529 25.6672H374.529ZM366.314 16.7492C363.653 16.7492 361.569 17.4769 360.159 19.0159C358.756 20.5465 358.099 22.7944 358.099 25.6672H359.099C359.099 22.928 359.728 20.9668 360.896 19.6915C362.058 18.4244 363.831 17.7492 366.314 17.7492V16.7492ZM357.048 25.7453C357.048 22.3985 357.845 19.9812 359.352 18.3997C360.854 16.8227 363.142 15.9914 366.314 15.9914V14.9914C362.975 14.9914 360.381 15.869 358.628 17.71C356.879 19.5465 356.048 22.2562 356.048 25.7453H357.048ZM366.314 15.9914C369.486 15.9914 371.774 16.8227 373.276 18.3997C374.782 19.9812 375.579 22.3985 375.579 25.7453H376.579C376.579 22.2562 375.749 19.5465 374 17.71C372.247 15.869 369.653 14.9914 366.314 14.9914V15.9914ZM375.579 25.7453C375.579 29.0854 374.782 31.4976 373.276 33.0759C371.775 34.6498 369.486 35.4797 366.314 35.4797V36.4797C369.652 36.4797 372.246 35.6038 374 33.7662C375.749 31.9331 376.579 29.2281 376.579 25.7453H375.579ZM366.314 35.4797C363.156 35.4797 360.873 34.6502 359.371 33.0759C357.864 31.4969 357.061 29.0838 357.048 25.7434L356.048 25.7472C356.062 29.2297 356.899 31.9337 358.647 33.7662C360.4 35.6035 362.988 36.4797 366.314 36.4797V35.4797ZM380.162 15.4914V14.9914H379.662V15.4914H380.162ZM382.213 15.4914H382.713V14.9914H382.213V15.4914ZM395.885 15.4914V14.9914H395.385V15.4914H395.885ZM397.936 15.4914H398.436V14.9914H397.936V15.4914ZM380.662 27.4445V15.4914H379.662V27.4445H380.662ZM380.162 15.9914H382.213V14.9914H380.162V15.9914ZM381.713 15.4914V27.4445H382.713V15.4914H381.713ZM381.713 27.4445C381.713 29.8495 382.301 31.7456 383.565 33.0382C384.83 34.3328 386.69 34.9367 389.049 34.9367V33.9367C386.85 33.9367 385.292 33.3752 384.28 32.3391C383.265 31.3009 382.713 29.701 382.713 27.4445H381.713ZM389.049 34.9367C391.408 34.9367 393.268 34.3328 394.533 33.0382C395.797 31.7456 396.385 29.8495 396.385 27.4445H395.385C395.385 29.701 394.833 31.3009 393.818 32.3391C392.805 33.3752 391.248 33.9367 389.049 33.9367V34.9367ZM396.385 27.4445V15.4914H395.385V27.4445H396.385ZM395.885 15.9914H397.936V14.9914H395.885V15.9914ZM397.436 15.4914V27.4445H398.436V15.4914H397.436ZM397.436 27.4445C397.436 30.2821 396.716 32.3189 395.363 33.6507C394.009 34.9839 391.936 35.6945 389.049 35.6945V36.6945C392.086 36.6945 394.457 35.9468 396.065 34.3633C397.674 32.7784 398.436 30.4402 398.436 27.4445H397.436ZM389.049 35.6945C386.162 35.6945 384.089 34.9839 382.735 33.6507C381.382 32.3189 380.662 30.2821 380.662 27.4445H379.662C379.662 30.4402 380.423 32.7784 382.033 34.3633C383.641 35.9468 386.012 36.6945 389.049 36.6945V35.6945ZM409.694 15.4719L410.153 15.6698L410.236 15.4788L410.158 15.2858L409.694 15.4719ZM404.284 9.55389L403.815 9.38078L403.641 9.8525L404.114 10.0239L404.284 9.55389ZM404.89 7.91326L405.036 7.43514L404.584 7.29688L404.421 7.74015L404.89 7.91326ZM411.687 14.8859L411.223 15.0739L411.226 15.0803L411.687 14.8859ZM420.593 35.9992V36.4992H421.346L421.053 35.8049L420.593 35.9992ZM418.327 35.9992L417.865 36.1891L417.992 36.4992H418.327V35.9992ZM410.749 17.5422L411.212 17.3523L410.748 16.2228L410.286 17.3531L410.749 17.5422ZM403.21 35.9992V36.4992H403.546L403.673 36.1883L403.21 35.9992ZM400.847 35.9992L400.387 35.8013L400.087 36.4992H400.847V35.9992ZM410.158 15.2858C408.886 12.1122 406.998 10.006 404.455 9.08383L404.114 10.0239C406.31 10.8205 408.028 12.6596 409.23 15.6579L410.158 15.2858ZM404.753 9.727L405.359 8.08636L404.421 7.74015L403.815 9.38078L404.753 9.727ZM404.743 8.39137C407.582 9.26023 409.753 11.4482 411.223 15.0738L412.15 14.698C410.6 10.8758 408.239 8.41524 405.036 7.43514L404.743 8.39137ZM411.226 15.0803L420.132 36.1935L421.053 35.8049L412.147 14.6916L411.226 15.0803ZM420.593 35.4992H418.327V36.4992H420.593V35.4992ZM418.79 35.8093L411.212 17.3523L410.286 17.7321L417.865 36.1891L418.79 35.8093ZM410.286 17.3531L402.747 35.8101L403.673 36.1883L411.212 17.7312L410.286 17.3531ZM403.21 35.4992H400.847V36.4992H403.21V35.4992ZM401.306 36.1971L410.153 15.6698L409.235 15.2739L400.387 35.8013L401.306 36.1971ZM423.719 35.9992H423.219V36.4992H423.719V35.9992ZM423.719 15.4914V14.9914H423.219V15.4914H423.719ZM425.183 15.4914L425.681 15.4431L425.637 14.9914H425.183V15.4914ZM425.437 18.1086L424.94 18.1569L425.02 18.9875L425.715 18.5246L425.437 18.1086ZM440.613 43.4211V43.9211H441.113V43.4211H440.613ZM438.562 43.4211H438.062V43.9211H438.562V43.4211ZM425.769 19.925L425.475 19.5205L425.269 19.6703V19.925H425.769ZM425.769 35.9992V36.4992H426.269V35.9992H425.769ZM424.219 35.9992V15.4914H423.219V35.9992H424.219ZM423.719 15.9914H425.183V14.9914H423.719V15.9914ZM424.686 15.5397L424.94 18.1569L425.935 18.0603L425.681 15.4431L424.686 15.5397ZM425.715 18.5246C428.27 16.8208 430.741 15.9914 433.133 15.9914V14.9914C430.499 14.9914 427.839 15.9068 425.16 17.6925L425.715 18.5246ZM433.133 15.9914C435.565 15.9914 437.297 16.5186 438.416 17.4859C439.521 18.4411 440.113 19.8989 440.113 21.9562H441.113C441.113 19.7036 440.458 17.929 439.07 16.7293C437.696 15.5417 435.687 14.9914 433.133 14.9914V15.9914ZM440.113 21.9562V43.4211H441.113V21.9562H440.113ZM440.613 42.9211H438.562V43.9211H440.613V42.9211ZM439.062 43.4211V21.8976H438.062V43.4211H439.062ZM439.062 21.8976C439.062 20.2694 438.565 18.9663 437.499 18.0846C436.451 17.2179 434.934 16.8273 433.035 16.8273V17.8273C434.821 17.8273 436.068 18.1985 436.862 18.8552C437.638 19.4969 438.062 20.479 438.062 21.8976H439.062ZM433.035 16.8273C430.449 16.8273 427.926 17.7392 425.475 19.5205L426.063 20.3294C428.378 18.6472 430.699 17.8273 433.035 17.8273V16.8273ZM425.269 19.925V35.9992H426.269V19.925H425.269ZM425.769 35.4992H423.719V36.4992H425.769V35.4992ZM463.368 15.4914H463.868V14.9914H463.368V15.4914ZM463.368 35.9992V36.4992H463.868V35.9992H463.368ZM461.864 35.9992L461.366 36.0438L461.407 36.4992H461.864V35.9992ZM461.629 33.382L462.127 33.3374L462.059 32.5712L461.386 32.945L461.629 33.382ZM447.938 33.6554L448.317 33.3298L447.438 32.3052V33.6554H447.938ZM447.938 43.4211V43.9211H448.438V43.4211H447.938ZM446.083 43.4211H445.583V43.9211H446.083V43.4211ZM446.083 15.4914V14.9914H445.583V15.4914H446.083ZM447.938 15.4914H448.438V14.9914H447.938V15.4914ZM461.317 31.5656L461.59 31.9845L461.817 31.8365V31.5656H461.317ZM461.317 15.4914V14.9914H460.817V15.4914H461.317ZM462.868 15.4914V35.9992H463.868V15.4914H462.868ZM463.368 35.4992H461.864V36.4992H463.368V35.4992ZM462.362 35.9546L462.127 33.3374L461.131 33.4266L461.366 36.0438L462.362 35.9546ZM461.386 32.945C458.283 34.6706 455.675 35.4992 453.544 35.4992V36.4992C455.917 36.4992 458.7 35.583 461.872 33.819L461.386 32.945ZM453.544 35.4992C451.267 35.4992 449.548 34.763 448.317 33.3298L447.559 33.9811C449.011 35.6729 451.028 36.4992 453.544 36.4992V35.4992ZM447.438 33.6554V43.4211H448.438V33.6554H447.438ZM447.938 42.9211H446.083V43.9211H447.938V42.9211ZM446.583 43.4211V15.4914H445.583V43.4211H446.583ZM446.083 15.9914H447.938V14.9914H446.083V15.9914ZM447.438 15.4914V28.6164H448.438V15.4914H447.438ZM447.438 28.6164C447.438 30.5598 447.992 32.1039 449.18 33.1515C450.355 34.1886 452.068 34.6633 454.227 34.6633V33.6633C452.193 33.6633 450.762 33.2135 449.841 32.4016C448.932 31.6002 448.438 30.3708 448.438 28.6164H447.438ZM454.227 34.6633C456.433 34.6633 458.893 33.743 461.59 31.9845L461.044 31.1468C458.429 32.8517 456.162 33.6633 454.227 33.6633V34.6633ZM461.817 31.5656V15.4914H460.817V31.5656H461.817ZM461.317 15.9914H463.368V14.9914H461.317V15.9914ZM481.826 18.2258L481.64 18.69L482.326 18.9643V18.2258H481.826ZM480.068 24.4758H480.568V23.9758H480.068V24.4758ZM480.068 26.2336V26.7336H480.568V26.2336H480.068ZM481.826 33.2648H482.326V32.5263L481.64 32.8006L481.826 33.2648ZM481.826 35.218L481.984 35.6923L482.326 35.5783V35.218H481.826ZM471.923 25.3547L472.046 25.8395L473.855 25.3829L472.06 24.8736L471.923 25.3547ZM481.826 16.2726H482.326V15.9123L481.984 15.7983L481.826 16.2726ZM475.849 8.0695V7.56951H475.586L475.437 7.7866L475.849 8.0695ZM478.954 8.0695L479.308 8.42307L480.162 7.56951H478.954V8.0695ZM474.287 12.7375V13.2375H474.494L474.64 13.091L474.287 12.7375ZM472.646 12.7375L472.234 12.4546L471.696 13.2375H472.646V12.7375ZM482.011 17.7615C479.996 16.9554 477.849 16.5539 475.576 16.5539V17.5539C477.729 17.5539 479.749 17.9336 481.64 18.69L482.011 17.7615ZM475.576 16.5539C473.648 16.5539 472.116 16.87 471.051 17.5745C469.951 18.3029 469.412 19.4067 469.412 20.8039H470.412C470.412 19.701 470.816 18.9299 471.604 18.4083C472.428 17.8628 473.727 17.5539 475.576 17.5539V16.5539ZM469.412 20.8039C469.412 22.206 470.035 23.2891 471.248 23.9906C472.419 24.6681 474.111 24.9758 476.259 24.9758V23.9758C474.175 23.9758 472.694 23.6715 471.749 23.125C470.846 22.6025 470.412 21.8497 470.412 20.8039H469.412ZM476.259 24.9758H480.068V23.9758H476.259V24.9758ZM479.568 24.4758V26.2336H480.568V24.4758H479.568ZM480.068 25.7336H476.201V26.7336H480.068V25.7336ZM476.201 25.7336C474.003 25.7336 472.269 26.0782 471.07 26.8364C469.833 27.619 469.216 28.8108 469.216 30.3351H470.216C470.216 29.1251 470.68 28.2661 471.605 27.6815C472.567 27.0725 474.076 26.7336 476.201 26.7336V25.7336ZM469.216 30.3351C469.216 31.8378 469.763 33.0289 470.894 33.8209C471.993 34.5902 473.579 34.9367 475.576 34.9367V33.9367C473.665 33.9367 472.322 33.5997 471.468 33.0017C470.646 32.4265 470.216 31.5668 470.216 30.3351H469.216ZM475.576 34.9367C477.849 34.9367 479.996 34.5352 482.011 33.7291L481.64 32.8006C479.749 33.557 477.729 33.9367 475.576 33.9367V34.9367ZM481.326 33.2648V35.218H482.326V33.2648H481.326ZM481.667 34.7436C479.769 35.3764 477.739 35.6945 475.576 35.6945V36.6945C477.839 36.6945 479.976 36.3616 481.984 35.6923L481.667 34.7436ZM475.576 35.6945C472.986 35.6945 471.135 35.2124 469.941 34.3279C468.775 33.4642 468.165 32.1639 468.165 30.3351H467.165C467.165 32.4126 467.875 34.042 469.345 35.1314C470.788 36.2001 472.892 36.6945 475.576 36.6945V35.6945ZM468.165 30.3351C468.165 29.1282 468.492 28.1846 469.11 27.4618C469.733 26.7332 470.693 26.1807 472.046 25.8395L471.801 24.8699C470.315 25.2448 469.146 25.8804 468.35 26.812C467.548 27.7493 467.165 28.9379 467.165 30.3351H468.165ZM472.06 24.8736C470.763 24.5058 469.843 23.9732 469.249 23.3078C468.664 22.6517 468.361 21.829 468.361 20.8039H467.361C467.361 22.0444 467.735 23.113 468.503 23.9738C469.264 24.8253 470.375 25.4353 471.787 25.8357L472.06 24.8736ZM468.361 20.8039C468.361 19.1045 468.961 17.8934 470.124 17.0834C471.32 16.2504 473.177 15.7961 475.771 15.7961V14.7961C473.092 14.7961 470.993 15.2597 469.553 16.2627C468.079 17.2886 467.361 18.8314 467.361 20.8039H468.361ZM475.771 15.7961C477.801 15.7961 479.766 16.1131 481.667 16.747L481.984 15.7983C479.979 15.1301 477.907 14.7961 475.771 14.7961V15.7961ZM481.326 16.2726V18.2258H482.326V16.2726H481.326ZM475.849 8.5695H478.954V7.56951H475.849V8.5695ZM478.601 7.71596L473.933 12.3839L474.64 13.091L479.308 8.42307L478.601 7.71596ZM474.287 12.2375H472.646V13.2375H474.287V12.2375ZM473.058 13.0204L476.261 8.35241L475.437 7.7866L472.234 12.4546L473.058 13.0204ZM483.194 15.4914V14.9914H482.441L482.733 15.685L483.194 15.4914ZM485.537 15.4914L486.001 15.3055L485.876 14.9914H485.537V15.4914ZM493.037 34.2219L492.573 34.4077L493.036 35.5639L493.501 34.4086L493.037 34.2219ZM500.576 15.4914V14.9914H500.239L500.113 15.3047L500.576 15.4914ZM502.92 15.4914L503.38 15.6872L503.676 14.9914H502.92V15.4914ZM494.19 35.9992V36.4992H494.52L494.65 36.1951L494.19 35.9992ZM491.807 35.9992L491.346 36.1928L491.475 36.4992H491.807V35.9992ZM483.194 15.9914H485.537V14.9914H483.194V15.9914ZM485.073 15.6773L492.573 34.4077L493.501 34.036L486.001 15.3055L485.073 15.6773ZM493.501 34.4086L501.04 15.6781L500.113 15.3047L492.573 34.0352L493.501 34.4086ZM500.576 15.9914H502.92V14.9914H500.576V15.9914ZM502.46 15.2955L493.73 35.8033L494.65 36.1951L503.38 15.6872L502.46 15.2955ZM494.19 35.4992H491.807V36.4992H494.19V35.4992ZM492.268 35.8056L483.655 15.2978L482.733 15.685L491.346 36.1928L492.268 35.8056ZM504.269 25.7453H503.769V25.7472L504.269 25.7453ZM505.819 25.6672C505.819 28.59 506.476 30.8756 507.876 32.4323C509.286 33.999 511.371 34.7414 514.034 34.7414V33.7414C511.554 33.7414 509.782 33.0547 508.62 31.7634C507.449 30.462 506.819 28.4604 506.819 25.6672H505.819ZM514.034 34.7414C516.697 34.7414 518.782 33.999 520.192 32.4323C521.593 30.8756 522.249 28.59 522.249 25.6672H521.249C521.249 28.4604 520.62 30.462 519.449 31.7634C518.287 33.0547 516.514 33.7414 514.034 33.7414V34.7414ZM522.249 25.6672C522.249 22.7944 521.592 20.5465 520.189 19.0159C518.779 17.4769 516.695 16.7492 514.034 16.7492V17.7492C516.517 17.7492 518.29 18.4244 519.452 19.6915C520.62 20.9668 521.249 22.928 521.249 25.6672H522.249ZM514.034 16.7492C511.374 16.7492 509.29 17.4769 507.879 19.0159C506.477 20.5465 505.819 22.7944 505.819 25.6672H506.819C506.819 22.928 507.448 20.9668 508.617 19.6915C509.778 18.4244 511.551 17.7492 514.034 17.7492V16.7492ZM504.769 25.7453C504.769 22.3985 505.566 19.9812 507.072 18.3997C508.574 16.8227 510.862 15.9914 514.034 15.9914V14.9914C510.695 14.9914 508.101 15.869 506.348 17.71C504.599 19.5465 503.769 22.2562 503.769 25.7453H504.769ZM514.034 15.9914C517.206 15.9914 519.494 16.8227 520.996 18.3997C522.503 19.9812 523.3 22.3985 523.3 25.7453H524.3C524.3 22.2562 523.469 19.5465 521.72 17.71C519.967 15.869 517.373 14.9914 514.034 14.9914V15.9914ZM523.3 25.7453C523.3 29.0854 522.503 31.4976 520.997 33.0759C519.495 34.6498 517.206 35.4797 514.034 35.4797V36.4797C517.373 36.4797 519.967 35.6038 521.72 33.7662C523.469 31.9331 524.3 29.2281 524.3 25.7453H523.3ZM514.034 35.4797C510.876 35.4797 508.593 34.6502 507.091 33.0759C505.585 31.4969 504.781 29.0838 504.769 25.7434L503.769 25.7472C503.782 29.2297 504.619 31.9337 506.368 33.7662C508.121 35.6035 510.708 36.4797 514.034 36.4797V35.4797ZM542.804 18.2258L542.601 18.6823L543.304 18.9965V18.2258H542.804ZM534.445 31.8195L534.583 31.3387L534.57 31.3355L534.445 31.8195ZM537.512 32.6984L537.374 33.1791L537.383 33.1816L537.392 33.1839L537.512 32.6984ZM534.777 43.4211H534.277V43.9211H534.777V43.4211ZM534.777 41.6633V41.1633H534.277V41.6633H534.777ZM537.043 34.4172L536.896 34.8952L536.91 34.8994L536.924 34.9029L537.043 34.4172ZM533.156 33.2258L533.303 32.7477L533.289 32.7437L533.276 32.7403L533.156 33.2258ZM542.804 16.468H543.304V16.1436L543.008 16.0114L542.804 16.468ZM543.008 17.7692C541.472 17.0834 539.674 16.7492 537.629 16.7492V17.7492C539.568 17.7492 541.22 18.0661 542.601 18.6823L543.008 17.7692ZM537.629 16.7492C534.645 16.7492 532.313 17.394 530.724 18.7707C529.121 20.1593 528.359 22.2171 528.359 24.8469H529.359C529.359 22.4116 530.059 20.6705 531.379 19.5265C532.713 18.3707 534.766 17.7492 537.629 17.7492V16.7492ZM528.359 24.8469C528.359 26.7753 528.848 28.3961 529.865 29.6663C530.881 30.9344 532.384 31.8027 534.32 32.3036L534.57 31.3355C532.782 30.8728 531.492 30.0972 530.646 29.0411C529.802 27.9871 529.359 26.6033 529.359 24.8469H528.359ZM534.307 32.3002L537.374 33.1791L537.649 32.2178L534.583 31.3389L534.307 32.3002ZM537.392 33.1839C539.303 33.6552 540.678 34.3144 541.569 35.1282C542.444 35.927 542.871 36.8909 542.871 38.05H543.871C543.871 36.6049 543.322 35.3747 542.243 34.3898C541.181 33.4197 539.627 32.7052 537.631 32.213L537.392 33.1839ZM542.871 38.05C542.871 39.6804 542.233 40.8569 540.957 41.6543C539.642 42.4762 537.606 42.9211 534.777 42.9211V43.9211C537.678 43.9211 539.938 43.4708 541.487 42.5023C543.076 41.5093 543.871 40.0003 543.871 38.05H542.871ZM535.277 43.4211V41.6633H534.277V43.4211H535.277ZM534.777 42.1633C537 42.1633 538.744 41.8676 539.95 41.22C540.561 40.8921 541.044 40.4681 541.373 39.9384C541.702 39.4072 541.859 38.7978 541.859 38.1281H540.859C540.859 38.6368 540.742 39.0585 540.523 39.4111C540.303 39.7651 539.964 40.0776 539.477 40.339C538.489 40.8697 536.943 41.1633 534.777 41.1633V42.1633ZM541.859 38.1281C541.859 37.0856 541.427 36.1989 540.606 35.4931C539.803 34.8024 538.638 34.2922 537.161 33.9315L536.924 34.9029C538.325 35.2452 539.319 35.7051 539.954 36.2514C540.572 36.7826 540.859 37.3998 540.859 38.1281H541.859ZM537.189 33.9391L533.303 32.7477L533.009 33.7038L536.896 34.8952L537.189 33.9391ZM533.276 32.7403C531.277 32.2468 529.825 31.3496 528.868 30.0783C527.909 28.8045 527.406 27.1018 527.406 24.925H526.406C526.406 27.2534 526.945 29.1868 528.069 30.6798C529.195 32.1755 530.869 33.1761 533.036 33.7112L533.276 32.7403ZM527.406 24.925C527.406 21.8753 528.27 19.6744 529.917 18.2252C531.576 16.7652 534.117 15.9914 537.629 15.9914V14.9914C533.992 14.9914 531.171 15.7899 529.256 17.4744C527.33 19.1697 526.406 21.6856 526.406 24.925H527.406ZM537.629 15.9914C539.568 15.9914 541.22 16.3083 542.601 16.9245L543.008 16.0114C541.472 15.3255 539.674 14.9914 537.629 14.9914V15.9914ZM542.304 16.468V18.2258H543.304V16.468H542.304Z" fill="#7C456A"/>
<path d="M112.07 100V87.4316H122.485V100H120.859V88.75H113.696V100H112.07ZM124.507 95.3857C124.507 92.3096 125.825 90.7715 128.462 90.7715C130.401 90.7715 131.702 91.7207 132.364 93.6191L133.314 90.7715H134.957L133.217 95.4121L134.834 100H133.164L132.232 97.0996C131.494 99.0332 130.237 100 128.462 100C125.837 100 124.519 98.4619 124.507 95.3857ZM126.133 95.3506C126.133 97.5713 126.909 98.6816 128.462 98.6816C129.839 98.6816 130.879 97.5713 131.582 95.3506C130.879 93.1768 129.839 92.0898 128.462 92.0898C126.909 92.0898 126.133 93.1768 126.133 95.3506ZM138.121 98.0312C138.76 98.4062 139.531 98.5938 140.433 98.5938C142.466 98.5938 143.483 97.4512 143.483 95.166C143.483 93.1387 142.56 92.125 140.714 92.125C138.986 92.125 138.121 93.1387 138.121 95.166V98.0312ZM136.496 95.166C136.496 92.2363 137.908 90.7715 140.732 90.7715C143.632 90.7715 145.082 92.2363 145.082 95.166C145.082 98.3887 143.536 100 140.442 100C139.586 100 138.813 99.8242 138.121 99.4727V103.34H136.496V95.166ZM146.48 95.3857C146.48 92.3096 147.799 90.7715 150.435 90.7715C152.375 90.7715 153.676 91.7207 154.338 93.6191L155.287 90.7715H156.93L155.19 95.4121L156.807 100H155.137L154.206 97.0996C153.468 99.0332 152.211 100 150.435 100C147.81 100 146.492 98.4619 146.48 95.3857ZM148.106 95.3506C148.106 97.5713 148.883 98.6816 150.435 98.6816C151.812 98.6816 152.852 97.5713 153.555 95.3506C152.852 93.1768 151.812 92.0898 150.435 92.0898C148.883 92.0898 148.106 93.1768 148.106 95.3506ZM166.95 95.2539C166.95 98.4766 165.465 100.088 162.494 100.088C159.606 100.088 158.161 98.5059 158.161 95.3418C158.161 92.3535 159.67 90.8594 162.688 90.8594C161.721 90.1387 160.546 89.4355 159.163 88.75V87.4316H166.063V88.75H161.694C165.122 90.5957 166.874 92.7637 166.95 95.2539ZM165.324 95.2891C165.324 93.1562 164.381 92.0898 162.494 92.0898C160.666 92.0898 159.752 93.1738 159.752 95.3418C159.752 97.627 160.669 98.7695 162.503 98.7695C164.384 98.7695 165.324 97.6094 165.324 95.2891ZM169.974 95.3506C169.974 97.5713 170.897 98.6816 172.743 98.6816C174.588 98.6816 175.511 97.5713 175.511 95.3506C175.511 93.1768 174.588 92.0898 172.743 92.0898C170.897 92.0898 169.974 93.1768 169.974 95.3506ZM168.348 95.3857C168.348 92.3096 169.813 90.7715 172.743 90.7715C175.672 90.7715 177.137 92.3096 177.137 95.3857C177.137 98.4561 175.672 99.9912 172.743 99.9912C169.825 99.9912 168.36 98.4561 168.348 95.3857ZM180.161 95.3506C180.161 97.5713 181.084 98.6816 182.93 98.6816C184.775 98.6816 185.698 97.5713 185.698 95.3506C185.698 93.1768 184.805 92.0898 183.017 92.0898C181.113 92.0898 180.161 93.1768 180.161 95.3506ZM178.535 95.3857C178.535 92.3096 180.029 90.7715 183.017 90.7715H188.44V92.0898H186.146C186.931 92.8457 187.324 93.9443 187.324 95.3857C187.324 98.4561 185.859 99.9912 182.93 99.9912C180.012 99.9912 178.547 98.4561 178.535 95.3857ZM191.649 90.7715V100H190.023V90.7715H191.649ZM193.67 95.3857C193.67 92.3096 194.989 90.7715 197.626 90.7715C199.565 90.7715 200.866 91.7207 201.528 93.6191L202.477 90.7715H204.121L202.38 95.4121L203.998 100H202.328L201.396 97.0996C200.658 99.0332 199.401 100 197.626 100C195.001 100 193.682 98.4619 193.67 95.3857ZM195.296 95.3506C195.296 97.5713 196.073 98.6816 197.626 98.6816C199.003 98.6816 200.043 97.5713 200.746 95.3506C200.043 93.1768 199.003 92.0898 197.626 92.0898C196.073 92.0898 195.296 93.1768 195.296 95.3506ZM214.237 90.7715L210.01 94.9639L214.448 100H212.189L208.559 95.5352V94.5508L212.181 90.7715H214.237ZM207.417 90.7715V100H205.791V90.7715H207.417ZM215.415 95.3857C215.415 92.3096 216.734 90.7715 219.37 90.7715C221.31 90.7715 222.611 91.7207 223.273 93.6191L224.222 90.7715H225.866L224.125 95.4121L225.742 100H224.073L223.141 97.0996C222.403 99.0332 221.146 100 219.37 100C216.745 100 215.427 98.4619 215.415 95.3857ZM217.041 95.3506C217.041 97.5713 217.818 98.6816 219.37 98.6816C220.747 98.6816 221.787 97.5713 222.491 95.3506C221.787 93.1768 220.747 92.0898 219.37 92.0898C217.818 92.0898 217.041 93.1768 217.041 95.3506ZM220.548 87.4316H222.649L220.548 89.5322H219.107L220.548 87.4316ZM231.746 100V87.4316H237.107C239.498 87.4316 240.693 88.4072 240.693 90.3584C240.693 91.7881 239.914 92.8105 238.355 93.4258C240.02 93.7363 240.852 94.6885 240.852 96.2822C240.852 98.7607 239.542 100 236.923 100H231.746ZM236.826 98.6816C238.326 98.6816 239.076 97.9199 239.076 96.3965C239.076 94.9141 238.071 94.1729 236.062 94.1729H235.358V93.1094C237.761 92.7871 238.962 91.9199 238.962 90.5078C238.962 89.3359 238.294 88.75 236.958 88.75H233.372V98.6816H236.826ZM248.832 92.5293C247.953 92.1777 247.016 92.002 246.02 92.002C244.789 92.002 244.174 92.3887 244.174 93.1621C244.174 94.0879 244.892 94.5508 246.327 94.5508H248.041V95.8691H246.301C244.825 95.8691 244.086 96.3965 244.086 97.4512C244.086 98.3301 244.731 98.7695 246.02 98.7695C247.016 98.7695 247.953 98.5938 248.832 98.2422V99.6484C247.953 99.9414 247.016 100.088 246.02 100.088C243.647 100.088 242.46 99.209 242.46 97.4512C242.46 96.2793 243.099 95.5322 244.376 95.21C243.158 94.8643 242.548 94.1816 242.548 93.1621C242.548 91.5098 243.735 90.6836 246.108 90.6836C247.045 90.6836 247.953 90.8301 248.832 91.123V92.5293ZM249.712 90.7715H251.469L254.115 98.0049L256.743 90.7715H258.501L254.748 100H253.236L249.712 90.7715ZM265.743 92.5293C264.864 92.1777 263.927 92.002 262.931 92.002C261.7 92.002 261.085 92.3887 261.085 93.1621C261.085 94.0879 261.803 94.5508 263.238 94.5508H264.952V95.8691H263.212C261.735 95.8691 260.997 96.3965 260.997 97.4512C260.997 98.3301 261.642 98.7695 262.931 98.7695C263.927 98.7695 264.864 98.5938 265.743 98.2422V99.6484C264.864 99.9414 263.927 100.088 262.931 100.088C260.558 100.088 259.371 99.209 259.371 97.4512C259.371 96.2793 260.01 95.5322 261.287 95.21C260.068 94.8643 259.459 94.1816 259.459 93.1621C259.459 91.5098 260.646 90.6836 263.019 90.6836C263.956 90.6836 264.864 90.8301 265.743 91.123V92.5293ZM266.271 90.7715H273.074V92.0898H270.305V96.748C270.305 98.043 270.938 98.6904 272.204 98.6904C272.286 98.6904 272.371 98.6875 272.458 98.6816V100C272.218 100.023 271.993 100.035 271.782 100.035C269.713 100.035 268.679 98.9395 268.679 96.748V92.0898H266.271V90.7715ZM275.887 95.3506C275.887 97.5713 276.809 98.6816 278.655 98.6816C280.501 98.6816 281.424 97.5713 281.424 95.3506C281.424 93.1768 280.53 92.0898 278.743 92.0898C276.839 92.0898 275.887 93.1768 275.887 95.3506ZM274.261 95.3857C274.261 92.3096 275.755 90.7715 278.743 90.7715H284.166V92.0898H281.872C282.657 92.8457 283.05 93.9443 283.05 95.3857C283.05 98.4561 281.585 99.9912 278.655 99.9912C275.737 99.9912 274.272 98.4561 274.261 95.3857ZM287.374 90.7715V100H285.748V90.7715H287.374ZM289.396 95.3857C289.396 92.3096 290.714 90.7715 293.351 90.7715C295.291 90.7715 296.591 91.7207 297.253 93.6191L298.203 90.7715H299.846L298.106 95.4121L299.723 100H298.053L297.122 97.0996C296.383 99.0332 295.126 100 293.351 100C290.726 100 289.408 98.4619 289.396 95.3857ZM291.022 95.3506C291.022 97.5713 291.798 98.6816 293.351 98.6816C294.728 98.6816 295.768 97.5713 296.471 95.3506C295.768 93.1768 294.728 92.0898 293.351 92.0898C291.798 92.0898 291.022 93.1768 291.022 95.3506ZM294.529 87.4316H296.629L294.529 89.5322H293.087L294.529 87.4316ZM300.55 90.7715H302.307L304.953 98.0049L307.581 90.7715H309.339L305.586 100H304.074L300.55 90.7715ZM312.45 90.7715V100H310.824V90.7715H312.45ZM323.358 90.7715L319.13 94.9639L323.569 100H321.31L317.68 95.5352V94.5508L321.301 90.7715H323.358ZM316.538 90.7715V100H314.912V90.7715H316.538ZM324.536 95.3857C324.536 92.3096 325.854 90.7715 328.491 90.7715C330.431 90.7715 331.731 91.7207 332.393 93.6191L333.343 90.7715H334.986L333.246 95.4121L334.863 100H333.193L332.262 97.0996C331.523 99.0332 330.267 100 328.491 100C325.866 100 324.548 98.4619 324.536 95.3857ZM326.162 95.3506C326.162 97.5713 326.938 98.6816 328.491 98.6816C329.868 98.6816 330.908 97.5713 331.611 95.3506C330.908 93.1768 329.868 92.0898 328.491 92.0898C326.938 92.0898 326.162 93.1768 326.162 95.3506ZM346.14 99.0068C342.215 98.79 340.252 97.0322 340.252 93.7334C340.252 90.4111 342.215 88.6416 346.14 88.4248V87.4316H347.758V88.416C351.683 88.6152 353.646 90.3877 353.646 93.7334C353.646 97.0615 351.683 98.8223 347.758 99.0156V100H346.14V99.0068ZM346.14 97.6797V89.752C343.351 89.9629 341.957 91.2725 341.957 93.6807C341.957 96.1299 343.351 97.4629 346.14 97.6797ZM347.758 89.7432V97.6885C350.547 97.4893 351.941 96.1533 351.941 93.6807C351.941 91.249 350.547 89.9365 347.758 89.7432ZM356.362 90.7715H357.988C357.227 92.0898 356.846 93.5547 356.846 95.166C356.846 97.5098 357.476 98.6816 358.735 98.6816C360.054 98.6816 360.713 96.7041 360.713 92.749H362.339C362.339 96.7041 362.998 98.6816 364.316 98.6816C365.576 98.6816 366.206 97.5098 366.206 95.166C366.206 93.5547 365.825 92.0898 365.064 90.7715H366.689C367.451 92.0898 367.832 93.5547 367.832 95.166C367.832 98.3887 366.66 100 364.316 100C362.939 100 362.002 99.0654 361.504 97.1963C361.035 99.0654 360.112 100 358.735 100C356.392 100 355.22 98.3887 355.22 95.166C355.22 93.5547 355.601 92.0898 356.362 90.7715ZM368.536 90.7715H375.338V92.0898H372.57V96.748C372.57 98.043 373.203 98.6904 374.468 98.6904C374.55 98.6904 374.635 98.6875 374.723 98.6816V100C374.483 100.023 374.257 100.035 374.046 100.035C371.978 100.035 370.944 98.9395 370.944 96.748V92.0898H368.536V90.7715ZM378.766 90.7715V100H377.14V90.7715H378.766ZM382.414 95.3506C382.414 97.5713 383.337 98.6816 385.183 98.6816C387.028 98.6816 387.951 97.5713 387.951 95.3506C387.951 93.1768 387.058 92.0898 385.271 92.0898C383.366 92.0898 382.414 93.1768 382.414 95.3506ZM380.788 95.3857C380.788 92.3096 382.282 90.7715 385.271 90.7715H390.693V92.0898H388.4C389.185 92.8457 389.577 93.9443 389.577 95.3857C389.577 98.4561 388.112 99.9912 385.183 99.9912C382.265 99.9912 380.8 98.4561 380.788 95.3857ZM390.782 90.7715H397.584V92.0898H394.816V96.748C394.816 98.043 395.449 98.6904 396.714 98.6904C396.796 98.6904 396.881 98.6875 396.969 98.6816V100C396.729 100.023 396.503 100.035 396.292 100.035C394.224 100.035 393.19 98.9395 393.19 96.748V92.0898H390.782V90.7715ZM401.013 90.7715V100H399.387V90.7715H401.013ZM411.92 90.7715L407.693 94.9639L412.131 100H409.872L406.242 95.5352V94.5508L409.863 90.7715H411.92ZM405.1 90.7715V100H403.474V90.7715H405.1ZM413.098 95.3857C413.098 92.3096 414.417 90.7715 417.053 90.7715C418.993 90.7715 420.294 91.7207 420.956 93.6191L421.905 90.7715H423.548L421.808 95.4121L423.425 100H421.755L420.824 97.0996C420.086 99.0332 418.829 100 417.053 100C414.428 100 413.11 98.4619 413.098 95.3857ZM414.724 95.3506C414.724 97.5713 415.501 98.6816 417.053 98.6816C418.43 98.6816 419.47 97.5713 420.173 95.3506C419.47 93.1768 418.43 92.0898 417.053 92.0898C415.501 92.0898 414.724 93.1768 414.724 95.3506ZM418.231 87.4316H420.332L418.231 89.5322H416.79L418.231 87.4316ZM438.948 87.4316V103.34H437.322V87.4316H438.948ZM455.139 87.4316V100H453.513V87.4316H455.139ZM463.981 87.4316L458.321 93.3643L464.104 100H461.845L456.721 93.9531V92.9688L461.924 87.4316H463.981ZM466.776 98.0312C467.415 98.4062 468.185 98.5938 469.088 98.5938C471.121 98.5938 472.137 97.4512 472.137 95.166C472.137 93.1387 471.215 92.125 469.369 92.125C467.64 92.125 466.776 93.1387 466.776 95.166V98.0312ZM465.15 95.166C465.15 92.2363 466.562 90.7715 469.387 90.7715C472.287 90.7715 473.737 92.2363 473.737 95.166C473.737 98.3887 472.19 100 469.096 100C468.241 100 467.468 99.8242 466.776 99.4727V103.34H465.15V95.166ZM475.135 95.3857C475.135 92.3096 476.453 90.7715 479.09 90.7715C481.029 90.7715 482.33 91.7207 482.992 93.6191L483.942 90.7715H485.585L483.845 95.4121L485.462 100H483.792L482.861 97.0996C482.122 99.0332 480.865 100 479.09 100C476.465 100 475.147 98.4619 475.135 95.3857ZM476.761 95.3506C476.761 97.5713 477.537 98.6816 479.09 98.6816C480.467 98.6816 481.507 97.5713 482.21 95.3506C481.507 93.1768 480.467 92.0898 479.09 92.0898C477.537 92.0898 476.761 93.1768 476.761 95.3506ZM480.268 87.4316H482.368L480.268 89.5322H478.826L480.268 87.4316ZM486.289 90.7715H488.046L490.692 98.0049L493.32 90.7715H495.078L491.325 100H489.813L486.289 90.7715ZM496.388 100V90.7715H497.486L497.776 91.9492C498.895 91.1641 500.02 90.7715 501.151 90.7715C503.278 90.7715 504.342 91.917 504.342 94.208V103.34H502.716V94.1816C502.716 92.8105 502.033 92.125 500.668 92.125C499.736 92.125 498.851 92.5146 498.014 93.2939V100H496.388ZM516.111 99.0068C512.185 98.79 510.222 97.0322 510.222 93.7334C510.222 90.4111 512.185 88.6416 516.111 88.4248V87.4316H517.728V88.416C521.654 88.6152 523.617 90.3877 523.617 93.7334C523.617 97.0615 521.654 98.8223 517.728 99.0156V100H516.111V99.0068ZM516.111 97.6797V89.752C513.322 89.9629 511.927 91.2725 511.927 93.6807C511.927 96.1299 513.322 97.4629 516.111 97.6797ZM517.728 89.7432V97.6885C520.517 97.4893 521.912 96.1533 521.912 93.6807C521.912 91.249 520.517 89.9365 517.728 89.7432ZM527.256 90.7715V100H525.63V90.7715H527.256ZM532.459 90.8945C531.932 89.7578 531.182 88.9932 530.209 88.6006L530.833 87.3613C532.251 87.7773 533.3 88.8232 533.98 90.499L537.812 100H536.001L533.25 92.7051L530.517 100H528.75L532.459 90.8945ZM538.779 95.3857C538.779 92.3096 540.097 90.7715 542.734 90.7715C544.674 90.7715 545.974 91.7207 546.636 93.6191L547.586 90.7715H549.229L547.489 95.4121L549.106 100H547.436L546.505 97.0996C545.766 99.0332 544.509 100 542.734 100C540.109 100 538.791 98.4619 538.779 95.3857ZM540.405 95.3506C540.405 97.5713 541.181 98.6816 542.734 98.6816C544.111 98.6816 545.151 97.5713 545.854 95.3506C545.151 93.1768 544.111 92.0898 542.734 92.0898C541.181 92.0898 540.405 93.1768 540.405 95.3506ZM552.394 98.0312C553.032 98.4062 553.803 98.5938 554.705 98.5938C556.738 98.5938 557.755 97.4512 557.755 95.166C557.755 93.1387 556.832 92.125 554.986 92.125C553.258 92.125 552.394 93.1387 552.394 95.166V98.0312ZM550.768 95.166C550.768 92.2363 552.18 90.7715 555.004 90.7715C557.904 90.7715 559.354 92.2363 559.354 95.166C559.354 98.3887 557.808 100 554.714 100C553.858 100 553.085 99.8242 552.394 99.4727V103.34H550.768V95.166ZM569.146 90.7715V100H568.03L567.748 98.8223C566.629 99.6074 565.563 100 564.549 100C563.787 100 563.21 99.7656 562.818 99.2969V103.34H561.192V90.7715H562.818V96.1504C562.818 97.8145 563.497 98.6465 564.857 98.6465C565.788 98.6465 566.676 98.2568 567.52 97.4775V90.7715H569.146ZM572.618 95.3506C572.618 97.5713 573.541 98.6816 575.386 98.6816C577.232 98.6816 578.155 97.5713 578.155 95.3506C578.155 93.1768 577.232 92.0898 575.386 92.0898C573.541 92.0898 572.618 93.1768 572.618 95.3506ZM570.992 95.3857C570.992 92.3096 572.457 90.7715 575.386 90.7715C578.316 90.7715 579.781 92.3096 579.781 95.3857C579.781 98.4561 578.316 99.9912 575.386 99.9912C572.469 99.9912 571.004 98.4561 570.992 95.3857ZM580.651 90.7715H582.409L585.055 98.0049L587.683 90.7715H589.441L585.688 100H584.176L580.651 90.7715ZM592.552 90.7715V100H590.926V90.7715H592.552ZM603.46 90.7715L599.232 94.9639L603.671 100H601.412L597.782 95.5352V94.5508L601.403 90.7715H603.46ZM596.639 90.7715V100H595.013V90.7715H596.639ZM605.077 100V90.7715H606.176L606.466 91.9492C607.585 91.1641 608.71 90.7715 609.841 90.7715C611.968 90.7715 613.031 91.917 613.031 94.208V103.34H611.405V94.1816C611.405 92.8105 610.723 92.125 609.358 92.125C608.426 92.125 607.541 92.5146 606.703 93.2939V100H605.077ZM609.314 87.4316H611.414L609.314 89.5322H607.872L609.314 87.4316ZM622.032 92.5293C621.376 92.2363 620.658 92.0898 619.878 92.0898C617.599 92.0898 616.46 93.1416 616.46 95.2451C616.46 96.6104 617.063 97.4805 618.27 97.8555L619.65 98.251C621.408 98.6846 622.287 99.5752 622.287 100.923C622.287 102.534 620.998 103.34 618.419 103.34V102.021C619.925 102.021 620.678 101.667 620.678 100.958C620.678 100.396 620.265 99.9854 619.439 99.7275L617.69 99.1914C615.815 98.7285 614.878 97.4248 614.878 95.2803C614.878 92.2744 616.544 90.7715 619.878 90.7715C620.658 90.7715 621.376 90.918 622.032 91.2109V92.5293Z" fill="black"/>
</svg>
